<?xml version="1.0" encoding="utf-8"?>
<!-- Generator: Adobe Illustrator 23.0.6, SVG Export Plug-In . SVG Version: 6.00 Build 0)  -->
<svg version="1.1" id="Layer_1" xmlns="http://www.w3.org/2000/svg" xmlns:xlink="http://www.w3.org/1999/xlink" x="0px" y="0px"
	 width="26px" height="25.8px" viewBox="0 0 26 25.8" style="enable-background:new 0 0 26 25.8;" xml:space="preserve">
<style type="text/css">
	.st0{opacity:0.5;}
</style>
<g class="st0">
	<path d="M11.8,12.9L0.2,24.4c-0.3,0.3-0.3,0.8,0,1.2c0.2,0.2,0.4,0.2,0.6,0.2s0.4-0.1,0.6-0.2L13,14l11.6,11.6
		c0.2,0.2,0.4,0.2,0.6,0.2s0.4-0.1,0.6-0.2c0.3-0.3,0.3-0.8,0-1.2L14.2,12.9L25.8,1.4c0.3-0.3,0.3-0.8,0-1.2c-0.3-0.3-0.8-0.3-1.2,0
		L13,11.8L1.4,0.2c-0.3-0.3-0.8-0.3-1.2,0c-0.3,0.3-0.3,0.8,0,1.2L11.8,12.9z"/>
</g>
</svg>
