<svg id="Layer_1" data-name="Layer 1" xmlns="http://www.w3.org/2000/svg" viewBox="0 0 60 60"><defs><style>.cls-1{fill:none;}.cls-1,.cls-2{stroke:#175480;stroke-linecap:round;stroke-miterlimit:10;stroke-width:1.15px;}.cls-2{fill:#b2dee7;}</style></defs><title>ZU-Icons</title><path class="cls-1" d="M25,49.39l-3-.4A24.24,24.24,0,0,1,2.11,22.7,24.16,24.16,0,0,1,50.3,25.2c0,6.89-3.86,15.34-7.64,17.57-3.45,2.1-5.41.95-5.41-1.08.27-3.58,3.31-5.2,17.84-2.77,0,0,2.71.74,2.91-1.49"/><path class="cls-2" d="M21.51,32.63C13,27.84,14.61,19,15.15,17.36A9.89,9.89,0,0,1,27,10.94c5.61,1.35,8.38,4.73,9.12,7.16s-.54,4.8-.47,5.41,1.49,2.23,2.1,3.31c.33,1.15-1.49,1.49-1.49,1.49,0,5.68-1.62,6-1.62,6s-2.3.07-4.33.21c-.88.06-1.21,1.15-1.35,2.23"/><path class="cls-2" d="M29.82,16.48S29,21.69,26.3,23.85a3.11,3.11,0,0,0-2.23-1.35,1.53,1.53,0,0,0-1.62.61,3.3,3.3,0,0,0,.48,4,12.34,12.34,0,0,0,2.83,1.76"/><path class="cls-1" d="M25,49l.14-8.31a.37.37,0,0,1,.61-.27L36.44,50c.34.34.07,1.22-.4,1.22H33.2a.43.43,0,0,0-.41.61l1.89,4.32a1.6,1.6,0,0,1-.87,2.16l-1.22.48a1.62,1.62,0,0,1-2.1-.88l-2-4.73a.48.48,0,0,0-.81-.14l-1.9,2.1a.5.5,0,0,1-.87-.34l-.14-2"/></svg>