<svg id="Layer_1" data-name="Layer 1" xmlns="http://www.w3.org/2000/svg" viewBox="0 0 60 60"><defs><style>.cls-1{fill:#175480;}.cls-2{fill:#b2dee7;}.cls-3{fill:none;stroke:#175480;stroke-linecap:round;stroke-miterlimit:10;stroke-width:1.39px;}</style></defs><title>ZU-Icons</title><path class="cls-1" d="M37.76,57,8.46,57a1.82,1.82,0,0,1-2-1.68V53c0-36.17,0-44.09,0-44.37A2.28,2.28,0,0,1,8.17,7L19.44,7a.61.61,0,0,0,.61-.61V6.07h4.21a.63.63,0,0,0,.61-.61,3.6,3.6,0,0,1,7.19,0,.61.61,0,0,0,.61.61h4.21v.24a.57.57,0,0,0,0,.22.61.61,0,0,0,.57.4h0l10.88,0h.07a1.82,1.82,0,0,1,1.88,1.68V37a.61.61,0,0,0,.58.61h0a.62.62,0,0,0,.65-.61c0-6.79,0-15.47,0-26.1V8.58A3,3,0,0,0,48.6,5.69l-.14,0h0L38.1,5.7V5.46a.61.61,0,0,0-.62-.61H33.23a4.81,4.81,0,0,0-9.54,0H19.44a.61.61,0,0,0-.62.61v.3l-10.7,0H8A3.4,3.4,0,0,0,5.28,8.62c0,.25,0,14.78,0,44.43v2.3a3,3,0,0,0,3.18,2.91l31,0Z"/><path class="cls-2" d="M14.66,25a3.7,3.7,0,1,1,3.7-3.7A3.7,3.7,0,0,1,14.66,25Zm0-6.47a2.77,2.77,0,1,0,2.76,2.77A2.77,2.77,0,0,0,14.66,18.48Z"/><path class="cls-2" d="M14.73,36.7a3.7,3.7,0,1,1,3.7-3.7A3.7,3.7,0,0,1,14.73,36.7Zm0-6.47A2.77,2.77,0,1,0,17.5,33,2.77,2.77,0,0,0,14.73,30.23Z"/><path class="cls-2" d="M14.94,48.44a3.7,3.7,0,1,1,3.69-3.7A3.7,3.7,0,0,1,14.94,48.44Zm0-6.47a2.77,2.77,0,0,0,0,5.54,2.77,2.77,0,0,0,2.76-2.76A2.78,2.78,0,0,0,14.94,42Z"/><path class="cls-2" d="M21.77,21.32a.47.47,0,1,1,0-.93H45.49a.47.47,0,1,1,0,.93Z"/><path class="cls-2" d="M21.77,33.75a.47.47,0,1,1,0-.94H45.49a.47.47,0,1,1,0,.94Z"/><path class="cls-2" d="M21.77,45a.47.47,0,0,1-.47-.47.48.48,0,0,1,.47-.47h12.3a.48.48,0,0,1,.47.47.47.47,0,0,1-.47.47Z"/><path class="cls-3" d="M33.57,46.38a10.7,10.7,0,1,0,18.74-4.55.79.79,0,0,0-1.18,0L38.23,54.65"/><line class="cls-3" x1="38.29" y1="42.87" x2="49.78" y2="54.36"/></svg>