<svg id="Layer_1" data-name="Layer 1" xmlns="http://www.w3.org/2000/svg" viewBox="0 0 60 60"><defs><style>.cls-1,.cls-2{fill:none;stroke-miterlimit:10;}.cls-1{stroke:#175480;stroke-width:1.14px;}.cls-2{stroke:#b2dee7;stroke-width:1.41px;}</style></defs><title>ZU-Icons</title><circle class="cls-1" cx="30" cy="15.05" r="13.88"/><ellipse class="cls-1" cx="30" cy="15.05" rx="5.34" ry="13.88"/><ellipse class="cls-1" cx="30" cy="15.05" rx="13.88" ry="5.34"/><line class="cls-2" x1="19.32" y1="15.05" x2="21.46" y2="15.05"/><line class="cls-2" x1="28.93" y1="15.05" x2="31.07" y2="15.05"/><line class="cls-2" x1="28.93" y1="24.66" x2="31.07" y2="24.66"/><line class="cls-2" x1="28.93" y1="5.44" x2="31.07" y2="5.44"/><line class="cls-2" x1="38.54" y1="15.05" x2="40.68" y2="15.05"/><path class="cls-1" d="M43.88,46h10A2.14,2.14,0,0,1,56,48.15V56.7a2.14,2.14,0,0,1-2.14,2.13H6.14A2.14,2.14,0,0,1,4,56.7V48.15A2.14,2.14,0,0,1,6.14,46H37.47"/><line class="cls-1" x1="39.61" y1="46.02" x2="41.75" y2="46.02"/><path class="cls-1" d="M18.25,46V42.81a2.14,2.14,0,0,1,2.14-2.13H39.61a2.14,2.14,0,0,0,2.14-2.14V37.47a2.14,2.14,0,0,0-2.14-2.13H32.14A2.14,2.14,0,0,1,30,33.2V28.93"/></svg>