<svg id="Layer_1" data-name="Layer 1" xmlns="http://www.w3.org/2000/svg" viewBox="0 0 60 60"><defs><style>.cls-1{fill:none;stroke:#175480;stroke-miterlimit:10;stroke-width:0.94px;}</style></defs><title>ZU-Icons</title><path class="cls-1" d="M58.94,49.49H44.71l2.75-14.87a62,62,0,0,1,10.19,6.66A3.85,3.85,0,0,1,59,44.17ZM46.31,32.82l-5.64,4.11,2.12,2.69-1.41,2.3,1.09,7.57H37.66l1.09-7.57-1.41-2.3,2.11-2.69-5.7-4.11V30.26a7.91,7.91,0,0,1-1-2.88c-.38,0-1-.64-1.53-2.7-.77-2.62-.07-3.14.64-3.14-.39-1.53-1.29-6.92,2.69-9.35a2,2,0,0,1-.71-1.67,30.82,30.82,0,0,0,6.73.07,4.54,4.54,0,0,1,4.94,2.94s4.48,0,2.75,8c.71,0,1.48.45.71,3.14-.58,2.05-1.16,2.63-1.54,2.69a8.92,8.92,0,0,1-1,2.89ZM1,47.35v-2.8a3.41,3.41,0,0,1,1.28-2.69,53.79,53.79,0,0,1,10.26-6.54.35.35,0,0,0,.19-.25v-3.4a6.85,6.85,0,0,1-1-2.69c-.39,0-.9-.58-1.41-2.44-.71-2.62.06-3,.7-2.94-.13-.33-.19-.71-.32-1.09h0a7.8,7.8,0,0,1,0-3.4,7.5,7.5,0,0,1,2-3.53,10.25,10.25,0,0,1,1.86-1.53,6.41,6.41,0,0,1,1.79-.9h0a7.42,7.42,0,0,1,5.71.51,5.21,5.21,0,0,1,2,1.92s3.33.26,2.18,7a6.69,6.69,0,0,1-.32,1.09c.64-.06,1.41.32.71,2.95-.52,1.92-1,2.43-1.41,2.43a9.81,9.81,0,0,1-1,2.69v3.4c0,.13.07.26.2.26.44.25,1.85.89,3.59,2,1.92-1.21,3.65-2.17,4.67-2.69l2.7,14.81"/><path class="cls-1" d="M21.19,44.17a3.88,3.88,0,0,1,1.34-2.89,63.32,63.32,0,0,1,10.19-6.66l2.7,14.87"/></svg>