<svg id="Layer_1" data-name="Layer 1" xmlns="http://www.w3.org/2000/svg" viewBox="0 0 60 60.51"><defs><style>.cls-1{fill:#175480;}.cls-2{fill:#db1f2a;}.cls-3{fill:#fff;}</style></defs><title>ZU-Logos-Icon</title><path class="cls-1" d="M54.87,0h-18L60,22.64V5.13A5.13,5.13,0,0,0,54.87,0Z"/><path class="cls-1" d="M23.64,59.82.55,36.24A30,30,0,0,0,23.64,59.82Z"/><path class="cls-2" d="M27.19,36.22l13.1-13.1L27.06,9.82,36.88,0H5.13A5.13,5.13,0,0,0,0,5.13V30.51a30.09,30.09,0,0,0,.55,5.73L23.38,13.43l10.08,10L20.32,36.64l13.09,13L23.64,59.82a29.65,29.65,0,0,0,6.36.69h0a30,30,0,0,0,30-30V22.64L36.83,45.84Z"/><polygon class="cls-1" points="23.64 59.82 60 22.64 36.88 0 0.55 36.24 23.64 59.82"/><path class="cls-3" d="M21.69,35.27l10.4-10.43a1.93,1.93,0,0,0,0-2.74l-8.71-8.67L.55,36.24,23.64,59.82l9.85-10.08L21.7,38A1.93,1.93,0,0,1,21.69,35.27Z"/><path class="cls-3" d="M27.06,9.82,38.92,21.75a1.93,1.93,0,0,1,0,2.74L28.56,34.84a2,2,0,0,0,0,2.75l8.51,8.5L60,22.64,36.88,0Z"/></svg>