<svg id="Layer_1" data-name="Layer 1" xmlns="http://www.w3.org/2000/svg" viewBox="0 0 67 70.23"><defs><style>.cls-1{fill:#db1f2a;}.cls-2{fill:#fff;}.cls-3{fill:#175480;}</style></defs><title>ZU-Logos-Icon</title><path class="cls-1" d="M54.86,9.73H5.13A5.13,5.13,0,0,0,0,14.86V40.23a30,30,0,0,0,30,30h0a30,30,0,0,0,30-30V14.86A5.14,5.14,0,0,0,54.86,9.73Z"/><path class="cls-2" d="M30.35,58.36,20.7,48.77a1.9,1.9,0,0,1,0-2.69l9.69-9.71a1.89,1.89,0,0,0,0-2.68l-6.8-6.77a1.9,1.9,0,0,0-2.68,0L.75,47.05,22.47,69.24,30.38,61A1.91,1.91,0,0,0,30.35,58.36Z"/><path class="cls-2" d="M66.47,18.2,47.88,0,27,20.85a1.9,1.9,0,0,0,0,2.68l9.78,9.83a1.9,1.9,0,0,1,0,2.68l-9.64,9.64a1.91,1.91,0,0,0,0,2.69l6.38,6.37a1.9,1.9,0,0,0,2.68,0L60.85,30.1"/><path class="cls-3" d="M67,15.46a2.87,2.87,0,0,0-3.11-2.61l-9.18.78,1.12-8.21a2.87,2.87,0,1,0-5.69-.78L49,12.86,40.38,9.65a2.87,2.87,0,1,0-2,5.38l8.13,3-6.56,7.61a2.88,2.88,0,0,0,4.36,3.75L50.66,22l4.16,8.81A2.87,2.87,0,0,0,60,28.39l-4.29-9.08,8.64-.74A2.87,2.87,0,0,0,67,15.46Z"/></svg>