<?xml version="1.0" encoding="utf-8"?>
<!-- Generator: Adobe Illustrator 22.0.1, SVG Export Plug-In . SVG Version: 6.00 Build 0)  -->
<svg version="1.1" id="Layer_1" xmlns="http://www.w3.org/2000/svg" xmlns:xlink="http://www.w3.org/1999/xlink" x="0px" y="0px"
	 viewBox="0 0 60 60" style="enable-background:new 0 0 60 60;" xml:space="preserve">
<style type="text/css">
	.st0{fill:#175480;}
	.st1{fill:#DB1F2A;}
</style>
<g>
	<path class="st0" d="M59.7,22.4V5.1c0-2.8-2.3-5.1-5.1-5.1H36.8L59.7,22.4z"/>
	<path class="st1" d="M0.8,35.9C3.3,47.8,12.2,57,23.7,59.3L0.8,35.9z"/>
	<path class="st1" d="M35.5,44.2l-6.6-6.6c-0.9-0.9-0.9-2.4,0-3.3l9.7-9.7c0.9-0.9,0.9-2.4,0-3.3l-9.8-9.8c-0.9-0.9-0.9-2.4,0-3.3
		L36.8,0H5.3C2.5,0,0.3,2.3,0.3,5.1v25.2c0,1.9,0.2,3.8,0.5,5.7l21-21c0.9-0.9,2.4-0.9,3.3,0l6.6,6.6c0.9,0.9,0.9,2.4,0,3.3
		l-9.7,9.7c-0.9,0.9-0.9,2.4,0,3.3l9.8,9.8c0.9,0.9,0.9,2.4,0,3.3l-8.2,8.2c2,0.4,4.1,0.7,6.3,0.7h0c16.4,0,29.7-13.3,29.7-29.7
		v-7.8L38.9,44.2C37.9,45.2,36.4,45.2,35.5,44.2z"/>
</g>
</svg>
