<svg xmlns="http://www.w3.org/2000/svg" xmlns:xlink="http://www.w3.org/1999/xlink" width="700.311" height="672.495" viewBox="0 0 700.311 672.495"><defs><clipPath id="a"><rect width="700.311" height="672.495" transform="translate(664.076 137.505)" fill="none"/></clipPath></defs><g transform="translate(-664.076 -137.505)"><g clip-path="url(#a)"><path d="M1245.519,462.4,985.074,312.03l116.64-67.461,260.461,150.365Z" fill="#efeeea" stroke="#073247" stroke-linecap="round" stroke-linejoin="round" stroke-width="2"/><path d="M1065.27,774.741,804.824,624.37l60.106-34.7,260.459,150.365Z" fill="#efeeea" stroke="#073247" stroke-linecap="round" stroke-linejoin="round" stroke-width="2"/><path d="M985.061,381.426,1245.52,531.8V462.4L985.075,312.03Z" fill="#175480" stroke="#073247" stroke-linecap="round" stroke-linejoin="round" stroke-width="2"/><path d="M804.812,693.766l260.459,150.378v-69.4L804.825,624.37Z" fill="#175480" stroke="#073247" stroke-linecap="round" stroke-linejoin="round" stroke-width="2"/><path d="M1185.4,566.513,924.949,416.143l60.106-34.7L1245.515,531.8Z" fill="#efeeea" stroke="#073247" stroke-linecap="round" stroke-linejoin="round" stroke-width="2"/><path d="M1005.145,878.853,744.7,728.483l60.106-34.7,260.46,150.364Z" fill="#efeeea" stroke="#073247" stroke-linecap="round" stroke-linejoin="round" stroke-width="2"/><path d="M924.935,485.539,1185.4,635.916v-69.4L924.949,416.143Z" fill="#175480" stroke="#073247" stroke-linecap="round" stroke-linejoin="round" stroke-width="2"/><path d="M744.686,797.879l260.459,150.377v-69.4L744.7,728.483Z" fill="#175480" stroke="#073247" stroke-linecap="round" stroke-linejoin="round" stroke-width="2"/><path d="M1125.31,670.608,864.865,520.238l60.1-34.7L1185.431,635.9Z" fill="#efeeea" stroke="#073247" stroke-linecap="round" stroke-linejoin="round" stroke-width="2"/><path d="M945.06,982.948,684.615,832.578l60.106-34.7,260.46,150.363Z" fill="#efeeea" stroke="#073247" stroke-linecap="round" stroke-linejoin="round" stroke-width="2"/><path d="M864.852,589.634,1125.31,740.011v-69.4L864.864,520.238Z" fill="#175480" stroke="#073247" stroke-linecap="round" stroke-linejoin="round" stroke-width="2"/><path d="M1125.522,670.387l60.119-34.709-.036-69.388,60.121-34.708,0-69.4,116.657-67.467-.181,416.646L945.172,1052.474v-69.4l60.12-34.71-.036-69.387,60.12-34.708.005-69.4,60.12-34.71Z" fill="#da1f2a" stroke="#073247" stroke-linecap="round" stroke-linejoin="round" stroke-width="2" fill-rule="evenodd"/></g><circle cx="27.824" cy="27.824" r="27.824" transform="translate(824.581 682.256)" fill="#efeeea" stroke="#073247" stroke-linecap="round" stroke-linejoin="round" stroke-width="2"/><circle cx="27.824" cy="27.824" r="27.824" transform="translate(1071.647 570.921)" fill="#175480" stroke="#073247" stroke-linecap="round" stroke-linejoin="round" stroke-width="2.239"/><circle cx="27.824" cy="27.824" r="27.824" transform="translate(1118.244 229.491)" fill="#da1f2a" stroke="#073247" stroke-linecap="round" stroke-linejoin="round" stroke-width="2.239"/><ellipse cx="21.099" cy="36.546" rx="21.099" ry="36.546" transform="translate(1170.492 397.789) rotate(-89.654)" fill="#175480" stroke="#073247" stroke-linecap="round" stroke-linejoin="round" stroke-width="1.204"/><ellipse cx="21.099" cy="36.546" rx="21.099" ry="36.546" transform="translate(1170.492 373.718) rotate(-89.654)" fill="#175480" stroke="#073247" stroke-linecap="round" stroke-linejoin="round" stroke-width="1.204"/><line y2="24.278" transform="translate(1170.62 352.633)" fill="none" stroke="#073247" stroke-linecap="round" stroke-linejoin="round" stroke-width="1.204"/><line y2="24.278" transform="translate(1243.711 352.633)" fill="none" stroke="#073247" stroke-linecap="round" stroke-linejoin="round" stroke-width="1.204"/><path d="M1170.618,352.693c0,4.212,2.173,8.437,6.524,12.066a30.851,30.851,0,0,0,4.273,2.948c14.322,8.269,37.461,8.317,51.681.1a30.233,30.233,0,0,0,4.092-2.817c4.351-3.586,6.524-7.793,6.524-12.005v23.927c.06,5.428-3.473,10.844-10.616,14.966-14.22,8.215-37.359,8.166-51.681-.1-7.2-4.152-10.8-9.593-10.8-15.015Z" fill="#073247"/><path d="M1208.172,389.486l-62.1-35.855,61.671-35.606,62.1,35.855Z" fill="#da1f2a" stroke="#073247" stroke-linecap="round" stroke-linejoin="round" stroke-width="1.204"/><path d="M1206.638,356.083l-.038-.022a2.675,2.675,0,0,1,0-4.633h0a2.674,2.674,0,0,1,2.675,0l.038.022a2.675,2.675,0,0,1,0,4.633h0A2.674,2.674,0,0,1,1206.638,356.083Z" fill="#073247"/><rect width="6.871" height="6.871" rx="3.436" transform="translate(1276.747 374.036) rotate(180)" fill="#073247"/><path d="M1278.353,397.431l-3.813-24.008h-2.277l-4.242,23.835,1.237-.451a.611.611,0,0,1,.926.288c.288.683.648,1.442,1.242,1.412s1.14-.88,1.14-.88a1,1,0,0,1,1.795-.122c.573.547.743.683.743.683s1.074.577,1.044-.531.167-1.457,1.153-.744S1278.353,397.431,1278.353,397.431Z" fill="#073247"/><path d="M1272.616,369.006h1.39v-6.065c.035-.512.309-6.021-4.025-9.6l-.886,1.071c3.883,3.21,3.527,8.4,3.523,8.452l0,.055Z" fill="#073247"/><line x2="61.887" y2="0.125" transform="translate(1207.956 353.756)" fill="none" stroke="#073247" stroke-miterlimit="10" stroke-width="1.204"/></g></svg>