<svg xmlns="http://www.w3.org/2000/svg" width="571.805" height="410.755" viewBox="0 0 571.805 410.755"><g transform="translate(-117.843 -4035.721)"><path d="M118.843,4322.827l212.434,122.649,53.481-30.877-159.325-91.987,160.442-92.631-53.109-30.663Z" fill="#efeeea" stroke="#073247" stroke-linecap="round" stroke-linejoin="round" stroke-width="2"/><path d="M385.874,4209.911l-160.442,92.631v20.07l160.442-92.631Z" fill="#efeeea" stroke="#073247" stroke-linecap="round" stroke-linejoin="round" stroke-width="2"/><path d="M118.843,4302.757l212.434,122.648,53.481-30.877-159.325-91.986,160.442-92.631-53.109-30.662Z" fill="#da1f2a" stroke="#073247" stroke-linecap="round" stroke-linejoin="round" stroke-width="2"/><path d="M384.757,4394.529v20.07l-53.481,30.877v-20.07Z" fill="#175480" stroke="#073247" stroke-linecap="round" stroke-linejoin="round" stroke-width="2"/><path d="M118.843,4302.757v20.07l212.434,122.649v-20.07Z" fill="#efeeea" stroke="#073247" stroke-linecap="round" stroke-linejoin="round" stroke-width="2"/><path d="M688.647,4180.3,476.213,4302.948l-53.481-30.877,159.325-91.987-160.442-92.631,53.109-30.662Z" fill="#efeeea" stroke="#073247" stroke-linecap="round" stroke-linejoin="round" stroke-width="2"/><path d="M421.616,4067.383l160.442,92.631v20.07l-160.442-92.631Z" fill="#efeeea" stroke="#073247" stroke-linecap="round" stroke-linejoin="round" stroke-width="2"/><path d="M688.647,4160.229,476.213,4282.878,422.733,4252l159.325-91.986-160.442-92.631,53.109-30.662Z" fill="#175480" stroke="#073247" stroke-linecap="round" stroke-linejoin="round" stroke-width="2"/><path d="M422.733,4252v20.07l53.481,30.877v-20.07Z" fill="#efeeea" stroke="#073247" stroke-linecap="round" stroke-linejoin="round" stroke-width="2"/><path d="M688.647,4160.229v20.07L476.213,4302.948v-20.07Z" fill="#da1f2a" stroke="#073247" stroke-linecap="round" stroke-linejoin="round" stroke-width="2"/></g></svg>