<svg xmlns="http://www.w3.org/2000/svg" xmlns:xlink="http://www.w3.org/1999/xlink" width="162" height="129" viewBox="0 0 162 129">
  <defs>
    <clipPath id="clip-Artboard_3">
      <rect width="162" height="129"/>
    </clipPath>
  </defs>
  <g id="Artboard_3" data-name="Artboard – 3" clip-path="url(#clip-Artboard_3)">
    <rect width="162" height="129" fill="#fff"/>
    <g id="Group_5" data-name="Group 5" transform="translate(-316.498 -189.235)">
      <path id="Path_8" data-name="Path 8" d="M383.279,253.18l-15.562-15.562a4.632,4.632,0,0,0-6.551,0L342.183,256.6a4.632,4.632,0,0,0,0,6.551l11.238,11.237" fill="none" stroke="#aed8e1" stroke-miterlimit="10" stroke-width="2"/>
      <path id="Path_9" data-name="Path 9" d="M471.68,259.728l5-5-62.15-63.493-22.92,23.441a5.218,5.218,0,0,0,.051,7.348l28.093,27.936a5.219,5.219,0,0,1,.015,7.385l-28.009,28.086a5.219,5.219,0,0,0,.015,7.384l23.444,23.321,45.124-45.085" fill="none" stroke="#00456f" stroke-linecap="round" stroke-miterlimit="10" stroke-width="2"/>
      <line id="Line_3" data-name="Line 3" y1="4.247" x2="4.251" transform="translate(464.098 263.056)" fill="none" stroke="#00456f" stroke-linecap="round" stroke-miterlimit="10" stroke-width="2"/>
      <path id="Path_10" data-name="Path 10" d="M396.969,297.978H353.421V258.535a4.85,4.85,0,0,1,4.85-4.85H421.3" fill="none" stroke="#00456f" stroke-linecap="round" stroke-miterlimit="10" stroke-width="2"/>
      <path id="Path_11" data-name="Path 11" d="M396.969,297.978H353.421l-7.966,7.9a2.939,2.939,0,0,0-.063,4.109h0a2.939,2.939,0,0,0,2.132.916H409.96" fill="none" stroke="#00456f" stroke-linecap="round" stroke-miterlimit="10" stroke-width="2"/>
      <g id="Group_3" data-name="Group 3">
        <path id="Path_12" data-name="Path 12" d="M367.611,288.539h1.9v-1.73h-1.9a2.3,2.3,0,0,1-2.059-2.516v-6.637a2.692,2.692,0,0,0-1.436-2.768,2.693,2.693,0,0,0,1.436-2.768v-6.637a2.277,2.277,0,0,1,2.059-2.516h1.9v-1.731h-1.9a4.036,4.036,0,0,0-3.9,4.247v6.448c0,1.164-.531,2.17-1.623,2.17v1.574c1.092,0,1.623,1.006,1.623,2.17v6.479A4.026,4.026,0,0,0,367.611,288.539Z" fill="#00456f"/>
      </g>
      <g id="Group_4" data-name="Group 4">
        <path id="Path_13" data-name="Path 13" d="M383.6,261.236h-1.9v1.731h1.9a2.3,2.3,0,0,1,2.058,2.516v6.637a2.693,2.693,0,0,0,1.436,2.768,2.692,2.692,0,0,0-1.436,2.768v6.637a2.277,2.277,0,0,1-2.058,2.516h-1.9v1.73h1.9a4.035,4.035,0,0,0,3.9-4.246v-6.448c0-1.164.531-2.17,1.623-2.17V274.1c-1.092,0-1.623-1.006-1.623-2.17v-6.48A4.027,4.027,0,0,0,383.6,261.236Z" fill="#aed8e1"/>
      </g>
      <path id="Path_14" data-name="Path 14" d="M398.174,253.685,365.8,221.314l-39.923,39.923,27.09,27.09" fill="none" stroke="#00456f" stroke-linecap="round" stroke-miterlimit="10" stroke-width="2"/>
      <circle id="Ellipse_2" data-name="Ellipse 2" cx="7.381" cy="7.381" r="7.381" transform="translate(358.421 213.933)" fill="#f7f8f8" stroke="#00456f" stroke-linecap="round" stroke-miterlimit="10" stroke-width="2"/>
      <circle id="Ellipse_3" data-name="Ellipse 3" cx="7.381" cy="7.381" r="7.381" transform="translate(318.498 253.855)" fill="#f7f8f8" stroke="#00456f" stroke-linecap="round" stroke-miterlimit="10" stroke-width="2"/>
      <rect id="Rectangle_1" data-name="Rectangle 1" width="6.555" height="6.555" rx="1.729" transform="translate(345.841 245.91) rotate(-135)" fill="#f7f8f8" stroke="#00456f" stroke-linecap="round" stroke-miterlimit="10" stroke-width="2"/>
      <circle id="Ellipse_4" data-name="Ellipse 4" cx="21.541" cy="21.541" r="21.541" transform="translate(420.482 267.818)" fill="#f7f8f8" stroke="#00456f" stroke-linecap="round" stroke-miterlimit="10" stroke-width="2"/>
      <circle id="Ellipse_5" data-name="Ellipse 5" cx="13.787" cy="13.787" r="13.787" transform="translate(428.236 275.572)" fill="#f7f8f8" stroke="#00456f" stroke-linecap="round" stroke-miterlimit="10" stroke-width="2"/>
      <circle id="Ellipse_6" data-name="Ellipse 6" cx="6.157" cy="6.157" r="6.157" transform="translate(435.866 283.202)" fill="#f7f8f8" stroke="#00456f" stroke-linecap="round" stroke-miterlimit="10" stroke-width="2"/>
      <line id="Line_4" data-name="Line 4" y1="18.309" x2="18.324" transform="translate(442.023 271.051)" fill="#f7f8f8" stroke="#00456f" stroke-linecap="round" stroke-miterlimit="10" stroke-width="2"/>
      <path id="Path_15" data-name="Path 15" d="M464.764,271.051h-4.416v-4.416" fill="none" stroke="#00456f" stroke-linecap="round" stroke-miterlimit="10" stroke-width="2"/>
      <circle id="Ellipse_7" data-name="Ellipse 7" cx="1.767" cy="1.767" r="1.767" transform="translate(368.593 273.121)" fill="#aed8e1"/>
      <circle id="Ellipse_8" data-name="Ellipse 8" cx="1.767" cy="1.767" r="1.767" transform="translate(373.739 273.121)" fill="#aed8e1"/>
      <circle id="Ellipse_9" data-name="Ellipse 9" cx="1.767" cy="1.767" r="1.767" transform="translate(378.884 273.121)" fill="#aed8e1"/>
    </g>
  </g>
</svg>
