<svg xmlns="http://www.w3.org/2000/svg" xmlns:xlink="http://www.w3.org/1999/xlink" width="129" height="122" viewBox="0 0 129 122">
  <defs>
    <clipPath id="clip-Artboard_4">
      <rect width="129" height="122"/>
    </clipPath>
  </defs>
  <g id="Artboard_4" data-name="Artboard – 4" clip-path="url(#clip-Artboard_4)">
    <rect width="129" height="122" fill="#fff"/>
    <g id="Group_10" data-name="Group 10" transform="translate(-300.566 -649.474)">
      <path id="Path_35" data-name="Path 35" d="M426.594,723.069V760.2a8.582,8.582,0,0,1-8.582,8.583H367.123a8.582,8.582,0,0,1-8.582-8.583V723.069" fill="none" stroke="#00456f" stroke-linecap="round" stroke-miterlimit="10" stroke-width="2"/>
      <path id="Path_36" data-name="Path 36" d="M382.018,746.659l-23.477-23.59V710.55a10.128,10.128,0,0,1,2.966-7.161l28.665-28.665a3.5,3.5,0,0,1,4.949,0l28.507,28.507a10.127,10.127,0,0,1,2.966,7.161v12.677l-23.871,23.59" fill="none" stroke="#00456f" stroke-linecap="round" stroke-miterlimit="10" stroke-width="2"/>
      <path id="Path_37" data-name="Path 37" d="M391.545,673.351,371.3,653.12a5.628,5.628,0,0,0-7.96.005l-60.771,60.857,51.577,50.493a6.408,6.408,0,0,0,8.877.084l23.353-22a8.692,8.692,0,0,1,11.868-.049l25.742,23.854" fill="none" stroke="#00456f" stroke-linecap="round" stroke-miterlimit="10" stroke-width="2"/>
      <path id="Path_38" data-name="Path 38" d="M368.864,732.281V713.059a6.645,6.645,0,0,1,6.645-6.645h34.117a6.646,6.646,0,0,1,6.646,6.645v19.222" fill="none" stroke="#00456f" stroke-linecap="round" stroke-miterlimit="10" stroke-width="2"/>
      <line id="Line_9" data-name="Line 9" x2="27.946" transform="translate(376.851 721.406)" fill="none" stroke="#aed8e1" stroke-linecap="round" stroke-miterlimit="10" stroke-width="2"/>
      <line id="Line_10" data-name="Line 10" x2="27.946" transform="translate(376.851 726.354)" fill="none" stroke="#aed8e1" stroke-linecap="round" stroke-miterlimit="10" stroke-width="2"/>
      <line id="Line_11" data-name="Line 11" x2="17.175" transform="translate(376.851 731.303)" fill="none" stroke="#aed8e1" stroke-linecap="round" stroke-miterlimit="10" stroke-width="2"/>
      <circle id="Ellipse_10" data-name="Ellipse 10" cx="9.456" cy="9.456" r="9.456" transform="translate(404.797 683.327)" fill="#fff" stroke="#00456f" stroke-linecap="round" stroke-miterlimit="10" stroke-width="2"/>
      <path id="Path_39" data-name="Path 39" d="M409.6,690.266l4.673,4.673L424.418,684.8" fill="none" stroke="#00456f" stroke-linecap="round" stroke-miterlimit="10" stroke-width="2"/>
    </g>
  </g>
</svg>
