<svg xmlns="http://www.w3.org/2000/svg" width="582.5" height="302.3" viewBox="0 0 582.5 302.3">
  <g id="Layer_2" data-name="Layer 2" transform="translate(-13.1 -19.8)">
    <g id="Group_7" data-name="Group 7">
      <g id="Group_6" data-name="Group 6" style="isolation: isolate">
        <path id="Path_9" data-name="Path 9" d="M40.8,35.4h3.5V37H40.8v5.7H39V37H28.7V36L38.8,20.3h2Zm-9.9,0H39V22.6h-.1l-.8,1.7Z" fill="#005484"/>
        <path id="Path_10" data-name="Path 10" d="M53.6,30.3a5.148,5.148,0,0,0,3.7-1.2A4.387,4.387,0,0,0,58.6,26a4.79,4.79,0,0,0-1.2-3.3,4.674,4.674,0,0,0-3.5-1.3,5.154,5.154,0,0,0-3.6,1.3A4.534,4.534,0,0,0,48.9,26H47.2v-.1a5.438,5.438,0,0,1,1.9-4.4A6.824,6.824,0,0,1,54,19.8a6.389,6.389,0,0,1,4.7,1.6,5.8,5.8,0,0,1,1.8,4.5,4.719,4.719,0,0,1-1,3,5.245,5.245,0,0,1-2.6,2,5.915,5.915,0,0,1,3,2,5.584,5.584,0,0,1,1,3.5A5.83,5.83,0,0,1,59,41.1,6.785,6.785,0,0,1,54,43a8.453,8.453,0,0,1-5.1-1.7,5.1,5.1,0,0,1-2.1-4.6v-.1h1.7A4.691,4.691,0,0,0,50,40.1a5.21,5.21,0,0,0,3.9,1.4,4.924,4.924,0,0,0,3.7-1.3,4.6,4.6,0,0,0,1.3-3.5,4.232,4.232,0,0,0-1.4-3.5,5.972,5.972,0,0,0-4-1.2H51.4V30.4h2.2Z" fill="#005484"/>
        <path id="Path_11" data-name="Path 11" d="M64.3,24.5a4.79,4.79,0,0,1,1.2-3.3,4.588,4.588,0,0,1,6.4,0,4.79,4.79,0,0,1,1.2,3.3v1.2A4.79,4.79,0,0,1,71.9,29a4.01,4.01,0,0,1-3.1,1.3A4.08,4.08,0,0,1,65.6,29a4.79,4.79,0,0,1-1.2-3.3l-.1-1.2Zm1.5,1.2a3.566,3.566,0,0,0,.8,2.3,2.716,2.716,0,0,0,2.2,1,2.393,2.393,0,0,0,2.1-1,3.691,3.691,0,0,0,.7-2.3V24.5a3.566,3.566,0,0,0-.8-2.3,2.658,2.658,0,0,0-2.1-1,2.7,2.7,0,0,0-2.2,1,3.566,3.566,0,0,0-.8,2.3v1.2Zm3.4,15.1L68,40,79,22.4l1.1.7Zm6.4-3.7a4.79,4.79,0,0,1,1.2-3.3,4.588,4.588,0,0,1,6.4,0,4.79,4.79,0,0,1,1.2,3.3v1.2a4.79,4.79,0,0,1-1.2,3.3A4.158,4.158,0,0,1,80,43a4.08,4.08,0,0,1-3.2-1.3,4.79,4.79,0,0,1-1.2-3.3Zm1.5,1.2a3.566,3.566,0,0,0,.8,2.3,2.716,2.716,0,0,0,2.2,1,2.393,2.393,0,0,0,2.1-1,3.506,3.506,0,0,0,.7-2.3V37.1a3.566,3.566,0,0,0-.8-2.3,2.9,2.9,0,0,0-4.2,0,3.566,3.566,0,0,0-.8,2.3Z" fill="#005484"/>
      </g>
    </g>
    <g id="Group_8" data-name="Group 8" style="isolation: isolate">
      <path id="Path_12" data-name="Path 12" d="M43.1,279.8l.2,1.7h.1l.3-1.7,2.3-8.4h1.7l2.3,8.4.3,1.7h.1l.2-1.7,1.8-8.4h1.9l-3.1,12.8H49.7l-2.6-8.9-.2-1.2h-.1l-.2,1.2L44,284.2H42.5l-3.1-12.8h1.9Z" fill="#0a99e0"/>
      <path id="Path_13" data-name="Path 13" d="M61.4,284.2a2.2,2.2,0,0,1-.1-.8c0-.2-.1-.4-.1-.7a2.85,2.85,0,0,1-1.3,1.1,3.448,3.448,0,0,1-4-.3,2.865,2.865,0,0,1-.8-2.1,2.476,2.476,0,0,1,1.1-2.1,5.1,5.1,0,0,1,3-.8h1.9v-.9a1.728,1.728,0,0,0-.5-1.3,1.978,1.978,0,0,0-1.4-.5,2.116,2.116,0,0,0-1.4.4,1.107,1.107,0,0,0-.5,1H55.7v-.1a2.418,2.418,0,0,1,1-1.9,4,4,0,0,1,2.7-.9,4.237,4.237,0,0,1,2.6.8,2.719,2.719,0,0,1,1,2.4v4.6a3.4,3.4,0,0,0,.1,1c.1.3.1.6.2.9H61.4ZM58.5,283a3.371,3.371,0,0,0,1.7-.5,2.591,2.591,0,0,0,1-1.1v-1.5H59.3a2.86,2.86,0,0,0-1.7.5,1.563,1.563,0,0,0-.6,1.2,1.159,1.159,0,0,0,.4,1A1.82,1.82,0,0,0,58.5,283Z" fill="#0a99e0"/>
      <path id="Path_14" data-name="Path 14" d="M70.9,281.7a.975.975,0,0,0-.4-.9,3.539,3.539,0,0,0-1.6-.6,7.055,7.055,0,0,1-2.6-1,1.965,1.965,0,0,1-.9-1.7,2.459,2.459,0,0,1,1-2,3.688,3.688,0,0,1,2.6-.8,3.573,3.573,0,0,1,2.6.9,2.966,2.966,0,0,1,1,2v.1H70.9a1.606,1.606,0,0,0-.5-1.1,2.168,2.168,0,0,0-1.4-.5,1.955,1.955,0,0,0-1.4.4,1.389,1.389,0,0,0-.5,1,.975.975,0,0,0,.4.9,5.346,5.346,0,0,0,1.6.6,6.941,6.941,0,0,1,2.7,1,2.019,2.019,0,0,1,.9,1.8,2.643,2.643,0,0,1-1,2.1,3.955,3.955,0,0,1-2.7.8,4.375,4.375,0,0,1-2.9-.9,2.7,2.7,0,0,1-1-2.2v-.1h1.7a1.435,1.435,0,0,0,.7,1.3,2.41,2.41,0,0,0,1.5.4,1.955,1.955,0,0,0,1.4-.4A1.392,1.392,0,0,0,70.9,281.7Z" fill="#0a99e0"/>
      <path id="Path_15" data-name="Path 15" d="M77.2,272.4v2.3H79V276H77.2v5.8c0,.4.1.8.3.9a.908.908,0,0,0,.7.3h.3c.1,0,.2-.1.3-.1l.2,1.2a1.628,1.628,0,0,1-.6.3,1.952,1.952,0,0,1-.7.1,2.352,2.352,0,0,1-1.7-.6,2.814,2.814,0,0,1-.6-2V276H74v-1.3h1.5v-2.3Z" fill="#0a99e0"/>
      <path id="Path_16" data-name="Path 16" d="M84.8,284.4a3.944,3.944,0,0,1-3.2-1.3,4.813,4.813,0,0,1-1.1-3.4v-.4a4.871,4.871,0,0,1,1.2-3.4,3.742,3.742,0,0,1,2.9-1.3,3.561,3.561,0,0,1,2.9,1.2,5.089,5.089,0,0,1,1,3.2v.9H82.4a3.921,3.921,0,0,0,.6,2.3,2.2,2.2,0,0,0,1.9.9,3.339,3.339,0,0,0,1.5-.3,4.129,4.129,0,0,0,1.1-.7l.7,1.1a4.111,4.111,0,0,1-1.3.8A4.638,4.638,0,0,1,84.8,284.4Zm-.2-8.5a1.8,1.8,0,0,0-1.5.7,3.594,3.594,0,0,0-.7,1.8h4.3v-.1a2.86,2.86,0,0,0-.5-1.7A2.015,2.015,0,0,0,84.6,275.9Z" fill="#0a99e0"/>
      <path id="Path_17" data-name="Path 17" d="M89.9,279.7a6.006,6.006,0,0,1,1-3.7,3.471,3.471,0,0,1,4.2-1.1,3.126,3.126,0,0,1,1.1.9v-5.2H98v13.7H96.7l-.3-1.2a2.335,2.335,0,0,1-1.2,1,4.193,4.193,0,0,1-1.6.4,2.992,2.992,0,0,1-2.7-1.3,5.623,5.623,0,0,1-1-3.3Zm1.7.2a3.921,3.921,0,0,0,.6,2.3,2.274,2.274,0,0,0,3.1.5,4.3,4.3,0,0,0,.9-1v-4.4a1.962,1.962,0,0,0-.9-.9,2.768,2.768,0,0,0-1.3-.3,1.9,1.9,0,0,0-1.8,1,5.545,5.545,0,0,0-.6,2.8Z" fill="#0a99e0"/>
      <path id="Path_18" data-name="Path 18" d="M107.4,272.4v2.3h1.8V276h-1.8v5.8c0,.4.1.8.3.9a.908.908,0,0,0,.7.3h.3c.1,0,.2-.1.3-.1l.2,1.2a1.628,1.628,0,0,1-.6.3,1.952,1.952,0,0,1-.7.1,2.352,2.352,0,0,1-1.7-.6,2.814,2.814,0,0,1-.6-2V276h-1.5v-1.3h1.5v-2.3Z" fill="#0a99e0"/>
      <path id="Path_19" data-name="Path 19" d="M112.9,272.3h-1.7v-1.8h1.7Zm0,11.9h-1.7v-9.5h1.7Z" fill="#0a99e0"/>
      <path id="Path_20" data-name="Path 20" d="M117.2,274.7l.1,1.2a3.179,3.179,0,0,1,1.2-1.1,4.256,4.256,0,0,1,1.7-.4,2.537,2.537,0,0,1,1.6.4,2.683,2.683,0,0,1,1,1.3,3.745,3.745,0,0,1,1.2-1.3,3.371,3.371,0,0,1,1.7-.5,2.765,2.765,0,0,1,2.3,1,4.47,4.47,0,0,1,.8,3V284h-1.7v-5.7a3.439,3.439,0,0,0-.5-2,1.933,1.933,0,0,0-2.8,0,2.111,2.111,0,0,0-.6,1.6V284h-1.7v-5.7a3.677,3.677,0,0,0-.5-2,1.678,1.678,0,0,0-1.4-.6,2.5,2.5,0,0,0-1.3.3,2.361,2.361,0,0,0-.8.9v7h-1.7v-9.5h1.4Z" fill="#0a99e0"/>
      <path id="Path_21" data-name="Path 21" d="M135.3,284.4a3.944,3.944,0,0,1-3.2-1.3,4.813,4.813,0,0,1-1.1-3.4v-.4a4.871,4.871,0,0,1,1.2-3.4,3.742,3.742,0,0,1,2.9-1.3,3.561,3.561,0,0,1,2.9,1.2,5.089,5.089,0,0,1,1,3.2v.9h-6.1a3.921,3.921,0,0,0,.6,2.3,2.2,2.2,0,0,0,1.9.9,3.339,3.339,0,0,0,1.5-.3,4.129,4.129,0,0,0,1.1-.7l.7,1.1a4.111,4.111,0,0,1-1.3.8A4.918,4.918,0,0,1,135.3,284.4Zm-.3-8.5a1.8,1.8,0,0,0-1.5.7,3.594,3.594,0,0,0-.7,1.8h4.3v-.1a2.86,2.86,0,0,0-.5-1.7A2.015,2.015,0,0,0,135,275.9Z" fill="#0a99e0"/>
      <path id="Path_22" data-name="Path 22" d="M142.3,283.8l-1.3,2.7h-1l.6-2.8v-1.4h1.7Z" fill="#0a99e0"/>
    </g>
    <g id="Group_9" data-name="Group 9" style="isolation: isolate">
      <path id="Path_23" data-name="Path 23" d="M42.3,302.1v5.1H40.6V294.4h4.9a4.591,4.591,0,0,1,3.2,1.1,3.421,3.421,0,0,1,1.1,2.8,3.763,3.763,0,0,1-1.1,2.8,4.4,4.4,0,0,1-3.2,1Zm0-1.3h3.2a2.226,2.226,0,0,0,1.9-.7,3,3,0,0,0,0-3.6,2.352,2.352,0,0,0-1.9-.7H42.3Z" fill="#0a99e0"/>
      <path id="Path_24" data-name="Path 24" d="M57.5,307.2a2.2,2.2,0,0,1-.1-.8c0-.2-.1-.4-.1-.7a2.85,2.85,0,0,1-1.3,1.1,3.448,3.448,0,0,1-4-.3,2.865,2.865,0,0,1-.8-2.1,2.476,2.476,0,0,1,1.1-2.1,5.1,5.1,0,0,1,3-.8h1.9v-.9a1.728,1.728,0,0,0-.5-1.3,1.978,1.978,0,0,0-1.4-.5,2.116,2.116,0,0,0-1.4.4,1.107,1.107,0,0,0-.5,1H51.8v-.1a2.418,2.418,0,0,1,1-1.9,4,4,0,0,1,2.7-.9,4.237,4.237,0,0,1,2.6.8,2.719,2.719,0,0,1,1,2.4v4.6a3.4,3.4,0,0,0,.1,1c.1.3.1.6.2.9H57.5ZM54.6,306a3.371,3.371,0,0,0,1.7-.5,2.591,2.591,0,0,0,1-1.1v-1.5H55.4a2.86,2.86,0,0,0-1.7.5,1.563,1.563,0,0,0-.6,1.2,1.16,1.16,0,0,0,.4,1A1.82,1.82,0,0,0,54.6,306Z" fill="#0a99e0"/>
      <path id="Path_25" data-name="Path 25" d="M66.1,299.3l-.9-.1a2.375,2.375,0,0,0-1.2.3,1.272,1.272,0,0,0-.7.9v6.8H61.6v-9.5h1.5l.2,1.4a4,4,0,0,1,1-1.2,2.3,2.3,0,0,1,1.4-.4h.4a.367.367,0,0,1,.3.1Z" fill="#0a99e0"/>
      <path id="Path_26" data-name="Path 26" d="M71.6,307.4a3.944,3.944,0,0,1-3.2-1.3,4.813,4.813,0,0,1-1.1-3.4v-.4a4.871,4.871,0,0,1,1.2-3.4,3.742,3.742,0,0,1,2.9-1.3,3.561,3.561,0,0,1,2.9,1.2,5.089,5.089,0,0,1,1,3.2v.9H69.2a3.921,3.921,0,0,0,.6,2.3,2.2,2.2,0,0,0,1.9.9,3.339,3.339,0,0,0,1.5-.3,4.129,4.129,0,0,0,1.1-.7l.7,1.1a4.111,4.111,0,0,1-1.3.8A4.638,4.638,0,0,1,71.6,307.4Zm-.2-8.5a1.8,1.8,0,0,0-1.5.7,3.594,3.594,0,0,0-.7,1.8h4.3v-.1a2.86,2.86,0,0,0-.5-1.7A2.015,2.015,0,0,0,71.4,298.9Z" fill="#0a99e0"/>
      <path id="Path_27" data-name="Path 27" d="M78.7,297.7l.1,1.4a3.447,3.447,0,0,1,1.2-1.2,2.934,2.934,0,0,1,1.6-.4,3.244,3.244,0,0,1,2.4.9,3.761,3.761,0,0,1,.8,2.8v6H83.1v-6a2.969,2.969,0,0,0-.5-1.8,1.721,1.721,0,0,0-1.5-.5,3.194,3.194,0,0,0-1.4.3,1.962,1.962,0,0,0-.9.9v7.1H77.1v-9.5Z" fill="#0a99e0"/>
      <path id="Path_28" data-name="Path 28" d="M89.7,295.4v2.3h1.8V299H89.7v5.8c0,.4.1.8.3.9a.908.908,0,0,0,.7.3H91c.1,0,.2-.1.3-.1l.2,1.2a1.628,1.628,0,0,1-.6.3,1.952,1.952,0,0,1-.7.1,2.352,2.352,0,0,1-1.7-.6,2.814,2.814,0,0,1-.6-2V299H86.4v-1.3H88v-2.3Z" fill="#0a99e0"/>
      <path id="Path_29" data-name="Path 29" d="M98.9,304.7a.975.975,0,0,0-.4-.9,3.539,3.539,0,0,0-1.6-.6,7.055,7.055,0,0,1-2.6-1,1.965,1.965,0,0,1-.9-1.7,2.459,2.459,0,0,1,1-2,3.688,3.688,0,0,1,2.6-.8,3.573,3.573,0,0,1,2.6.9,2.966,2.966,0,0,1,1,2v.1H98.9a1.606,1.606,0,0,0-.5-1.1,2.168,2.168,0,0,0-1.4-.5,1.955,1.955,0,0,0-1.4.4,1.389,1.389,0,0,0-.5,1,.975.975,0,0,0,.4.9,5.346,5.346,0,0,0,1.6.6,6.941,6.941,0,0,1,2.7,1,2.019,2.019,0,0,1,.9,1.8,2.643,2.643,0,0,1-1,2.1,3.955,3.955,0,0,1-2.7.8,4.375,4.375,0,0,1-2.9-.9,2.7,2.7,0,0,1-1-2.2v-.1h1.7a1.435,1.435,0,0,0,.7,1.3,2.41,2.41,0,0,0,1.5.4,1.955,1.955,0,0,0,1.4-.4A1.392,1.392,0,0,0,98.9,304.7Z" fill="#0a99e0"/>
      <path id="Path_30" data-name="Path 30" d="M104.7,296.1l-.9,3H103v-4.7h1.7Z" fill="#0a99e0"/>
      <path id="Path_31" data-name="Path 31" d="M113.4,297.7l.1,1.2a3.179,3.179,0,0,1,1.2-1.1,4.256,4.256,0,0,1,1.7-.4,2.537,2.537,0,0,1,1.6.4,2.683,2.683,0,0,1,1,1.3,3.745,3.745,0,0,1,1.2-1.3,3.371,3.371,0,0,1,1.7-.5,2.765,2.765,0,0,1,2.3,1,4.47,4.47,0,0,1,.8,3V307h-1.7v-5.7a3.44,3.44,0,0,0-.5-2,1.933,1.933,0,0,0-2.8,0,2.111,2.111,0,0,0-.6,1.6V307h-1.7v-5.7a3.677,3.677,0,0,0-.5-2,1.678,1.678,0,0,0-1.4-.6,2.5,2.5,0,0,0-1.3.3,2.361,2.361,0,0,0-.8.9v7H112v-9.5h1.4Z" fill="#0a99e0"/>
      <path id="Path_32" data-name="Path 32" d="M127.2,302.4a5.625,5.625,0,0,1,1.1-3.5,4.132,4.132,0,0,1,6.2,0,5.074,5.074,0,0,1,1.1,3.5v.2a5.625,5.625,0,0,1-1.1,3.5,4.132,4.132,0,0,1-6.2,0,5.074,5.074,0,0,1-1.1-3.5Zm1.7.2a4.871,4.871,0,0,0,.6,2.5,2.305,2.305,0,0,0,3.8,0,4.871,4.871,0,0,0,.6-2.5v-.2a4.871,4.871,0,0,0-.6-2.5,2.305,2.305,0,0,0-3.8,0,4.871,4.871,0,0,0-.6,2.5Z" fill="#0a99e0"/>
      <path id="Path_33" data-name="Path 33" d="M139.3,297.7l.1,1.4a3.447,3.447,0,0,1,1.2-1.2,2.934,2.934,0,0,1,1.6-.4,3.244,3.244,0,0,1,2.4.9,3.761,3.761,0,0,1,.8,2.8v6h-1.7v-6a2.969,2.969,0,0,0-.5-1.8,1.721,1.721,0,0,0-1.5-.5,3.194,3.194,0,0,0-1.4.3,1.962,1.962,0,0,0-.9.9v7.1h-1.7v-9.5Z" fill="#0a99e0"/>
      <path id="Path_34" data-name="Path 34" d="M152,307.4a3.944,3.944,0,0,1-3.2-1.3,4.813,4.813,0,0,1-1.1-3.4v-.4a4.871,4.871,0,0,1,1.2-3.4,3.742,3.742,0,0,1,2.9-1.3,3.561,3.561,0,0,1,2.9,1.2,5.089,5.089,0,0,1,1,3.2v.9h-6.1a3.921,3.921,0,0,0,.6,2.3,2.2,2.2,0,0,0,1.9.9,3.339,3.339,0,0,0,1.5-.3,4.129,4.129,0,0,0,1.1-.7l.7,1.1a4.11,4.11,0,0,1-1.3.8A5.223,5.223,0,0,1,152,307.4Zm-.3-8.5a1.8,1.8,0,0,0-1.5.7,3.594,3.594,0,0,0-.7,1.8h4.3v-.1a2.86,2.86,0,0,0-.5-1.7A2.015,2.015,0,0,0,151.7,298.9Z" fill="#0a99e0"/>
      <path id="Path_35" data-name="Path 35" d="M160.2,303.7l.3,1.2h.1l2.3-7.2h1.9l-4,11a5.854,5.854,0,0,1-1,1.7,2.268,2.268,0,0,1-1.8.7h-.5a4.331,4.331,0,0,1-.5-.1l.2-1.4h.8a1.05,1.05,0,0,0,.9-.5,10.908,10.908,0,0,0,.6-1.1l.4-1-3.5-9.3h1.9Z" fill="#0a99e0"/>
      <path id="Path_36" data-name="Path 36" d="M173.3,295.4v2.3h1.8V299h-1.8v5.8c0,.4.1.8.3.9a.908.908,0,0,0,.7.3h.3c.1,0,.2-.1.3-.1l.2,1.2a1.628,1.628,0,0,1-.6.3,1.952,1.952,0,0,1-.7.1,2.352,2.352,0,0,1-1.7-.6,2.814,2.814,0,0,1-.6-2V299H170v-1.3h1.5v-2.3Z" fill="#0a99e0"/>
      <path id="Path_37" data-name="Path 37" d="M176.5,302.4a5.625,5.625,0,0,1,1.1-3.5,4.132,4.132,0,0,1,6.2,0,5.074,5.074,0,0,1,1.1,3.5v.2a5.625,5.625,0,0,1-1.1,3.5,4.132,4.132,0,0,1-6.2,0,5.074,5.074,0,0,1-1.1-3.5Zm1.7.2a4.871,4.871,0,0,0,.6,2.5,2.305,2.305,0,0,0,3.8,0,4.871,4.871,0,0,0,.6-2.5v-.2a4.871,4.871,0,0,0-.6-2.5,2.305,2.305,0,0,0-3.8,0,4.871,4.871,0,0,0-.6,2.5Z" fill="#0a99e0"/>
      <path id="Path_38" data-name="Path 38" d="M186.7,302.4a5.625,5.625,0,0,1,1.1-3.5,4.132,4.132,0,0,1,6.2,0,5.074,5.074,0,0,1,1.1,3.5v.2a5.625,5.625,0,0,1-1.1,3.5,4.132,4.132,0,0,1-6.2,0,5.074,5.074,0,0,1-1.1-3.5Zm1.8.2a4.871,4.871,0,0,0,.6,2.5,2.3,2.3,0,0,0,3.8,0,4.871,4.871,0,0,0,.6-2.5v-.2a4.871,4.871,0,0,0-.6-2.5,2.3,2.3,0,0,0-3.8,0,4.871,4.871,0,0,0-.6,2.5Z" fill="#0a99e0"/>
      <path id="Path_39" data-name="Path 39" d="M199.4,303h-1.7v-8.6h1.7Zm0,4.2h-1.7v-1.8h1.7Z" fill="#0a99e0"/>
    </g>
    <g id="Group_10" data-name="Group 10" style="isolation: isolate">
      <path id="Path_40" data-name="Path 40" d="M35.4,67.3h0l4.1-10.4h2.2V69.7H40V60.1h-.1L36,69.7H34.8l-4-9.9h-.1v9.9H29V56.9h2.3Z" fill="#005484"/>
      <path id="Path_41" data-name="Path 41" d="M50.3,69.7a2.2,2.2,0,0,1-.1-.8c0-.2-.1-.4-.1-.7a2.85,2.85,0,0,1-1.3,1.1,3.448,3.448,0,0,1-4-.3,2.865,2.865,0,0,1-.8-2.1,2.476,2.476,0,0,1,1.1-2.1,5.1,5.1,0,0,1,3-.8H50v-.9a1.728,1.728,0,0,0-.5-1.3,1.978,1.978,0,0,0-1.4-.5,2.116,2.116,0,0,0-1.4.4,1.107,1.107,0,0,0-.5,1H44.6v-.1a2.418,2.418,0,0,1,1-1.9,4,4,0,0,1,2.7-.9,4.237,4.237,0,0,1,2.6.8,2.719,2.719,0,0,1,1,2.4v4.6a3.4,3.4,0,0,0,.1,1c.1.3.1.6.2.9H50.3Zm-2.9-1.2a3.371,3.371,0,0,0,1.7-.5,2.591,2.591,0,0,0,1-1.1V65.4H48.2a2.86,2.86,0,0,0-1.7.5,1.563,1.563,0,0,0-.6,1.2,1.159,1.159,0,0,0,.4,1A1.82,1.82,0,0,0,47.4,68.5Z" fill="#005484"/>
      <path id="Path_42" data-name="Path 42" d="M59.9,67.2a.975.975,0,0,0-.4-.9,3.539,3.539,0,0,0-1.6-.6,7.055,7.055,0,0,1-2.6-1,1.965,1.965,0,0,1-.9-1.7,2.459,2.459,0,0,1,1-2,3.688,3.688,0,0,1,2.6-.8,3.573,3.573,0,0,1,2.6.9,2.966,2.966,0,0,1,1,2v.1H59.9a1.606,1.606,0,0,0-.5-1.1,2.168,2.168,0,0,0-1.4-.5,1.955,1.955,0,0,0-1.4.4,1.389,1.389,0,0,0-.5,1,.975.975,0,0,0,.4.9,5.346,5.346,0,0,0,1.6.6,6.941,6.941,0,0,1,2.7,1,2.019,2.019,0,0,1,.9,1.8,2.643,2.643,0,0,1-1,2.1,3.955,3.955,0,0,1-2.7.8,4.375,4.375,0,0,1-2.9-.9,2.7,2.7,0,0,1-1-2.2V67h1.7a1.435,1.435,0,0,0,.7,1.3,2.41,2.41,0,0,0,1.5.4,1.955,1.955,0,0,0,1.4-.4A1.823,1.823,0,0,0,59.9,67.2Z" fill="#005484"/>
      <path id="Path_43" data-name="Path 43" d="M69.3,67.2a.975.975,0,0,0-.4-.9,3.539,3.539,0,0,0-1.6-.6,7.055,7.055,0,0,1-2.6-1,1.965,1.965,0,0,1-.9-1.7,2.459,2.459,0,0,1,1-2,3.688,3.688,0,0,1,2.6-.8,3.573,3.573,0,0,1,2.6.9,2.966,2.966,0,0,1,1,2v.1H69.3a1.606,1.606,0,0,0-.5-1.1,2.168,2.168,0,0,0-1.4-.5A1.955,1.955,0,0,0,66,62a1.389,1.389,0,0,0-.5,1,.975.975,0,0,0,.4.9,5.346,5.346,0,0,0,1.6.6,6.941,6.941,0,0,1,2.7,1,2.019,2.019,0,0,1,.9,1.8,2.643,2.643,0,0,1-1,2.1,3.955,3.955,0,0,1-2.7.8,4.375,4.375,0,0,1-2.9-.9,2.7,2.7,0,0,1-1-2.2V67h1.7a1.435,1.435,0,0,0,.7,1.3,2.41,2.41,0,0,0,1.5.4,1.955,1.955,0,0,0,1.4-.4A1.823,1.823,0,0,0,69.3,67.2Z" fill="#005484"/>
      <path id="Path_44" data-name="Path 44" d="M75.1,57.8H73.4V56h1.7Zm0,11.9H73.4V60.2h1.7Z" fill="#005484"/>
      <path id="Path_45" data-name="Path 45" d="M80.9,66.9l.1.7h.1l.2-.7,2.2-6.7h1.8l-3.5,9.5H80.5L77,60.2h1.8Z" fill="#005484"/>
      <path id="Path_46" data-name="Path 46" d="M90.6,69.9a3.944,3.944,0,0,1-3.2-1.3,4.813,4.813,0,0,1-1.1-3.4v-.4a4.871,4.871,0,0,1,1.2-3.4,3.742,3.742,0,0,1,2.9-1.3,3.561,3.561,0,0,1,2.9,1.2,5.089,5.089,0,0,1,1,3.2v.9H88.2a3.921,3.921,0,0,0,.6,2.3,2.2,2.2,0,0,0,1.9.9,3.339,3.339,0,0,0,1.5-.3,4.129,4.129,0,0,0,1.1-.7l.7,1.1a4.11,4.11,0,0,1-1.3.8A4.638,4.638,0,0,1,90.6,69.9Zm-.3-8.5a1.8,1.8,0,0,0-1.5.7,3.594,3.594,0,0,0-.7,1.8h4.3v-.1a2.86,2.86,0,0,0-.5-1.7A2.015,2.015,0,0,0,90.3,61.4Z" fill="#005484"/>
      <path id="Path_47" data-name="Path 47" d="M103,57.9v2.3h1.8v1.3H103v5.8c0,.4.1.8.3.9a.908.908,0,0,0,.7.3h.3c.1,0,.2-.1.3-.1l.2,1.2a1.628,1.628,0,0,1-.6.3,1.952,1.952,0,0,1-.7.1,2.352,2.352,0,0,1-1.7-.6,2.814,2.814,0,0,1-.6-2V61.6H99.7V60.3h1.5V58H103v-.1Z" fill="#005484"/>
      <path id="Path_48" data-name="Path 48" d="M108.5,57.8h-1.7V56h1.7Zm0,11.9h-1.7V60.2h1.7Z" fill="#005484"/>
      <path id="Path_49" data-name="Path 49" d="M112.7,60.2l.1,1.2a3.179,3.179,0,0,1,1.2-1.1,4.256,4.256,0,0,1,1.7-.4,2.537,2.537,0,0,1,1.6.4,2.683,2.683,0,0,1,1,1.3,3.745,3.745,0,0,1,1.2-1.3,3.371,3.371,0,0,1,1.7-.5,2.765,2.765,0,0,1,2.3,1,4.47,4.47,0,0,1,.8,3v5.7h-1.7V64a3.439,3.439,0,0,0-.5-2,1.933,1.933,0,0,0-2.8,0,2.111,2.111,0,0,0-.6,1.6v6.1H117V64a3.677,3.677,0,0,0-.5-2,1.678,1.678,0,0,0-1.4-.6,2.5,2.5,0,0,0-1.3.3,2.361,2.361,0,0,0-.8.9v7h-1.7V60.1l1.4.1Z" fill="#005484"/>
      <path id="Path_50" data-name="Path 50" d="M130.8,69.9a3.944,3.944,0,0,1-3.2-1.3,4.813,4.813,0,0,1-1.1-3.4v-.4a4.871,4.871,0,0,1,1.2-3.4,3.742,3.742,0,0,1,2.9-1.3,3.561,3.561,0,0,1,2.9,1.2,5.089,5.089,0,0,1,1,3.2v.9h-6.1a3.921,3.921,0,0,0,.6,2.3,2.2,2.2,0,0,0,1.9.9,3.339,3.339,0,0,0,1.5-.3,4.129,4.129,0,0,0,1.1-.7l.7,1.1a4.11,4.11,0,0,1-1.3.8A4.638,4.638,0,0,1,130.8,69.9Zm-.2-8.5a1.8,1.8,0,0,0-1.5.7,3.594,3.594,0,0,0-.7,1.8h4.3v-.1a2.86,2.86,0,0,0-.5-1.7A2.015,2.015,0,0,0,130.6,61.4Z" fill="#005484"/>
    </g>
    <g id="Group_11" data-name="Group 11" style="isolation: isolate">
      <path id="Path_51" data-name="Path 51" d="M31.3,89.3l.2,1.2h.1l.2-1.2,1.9-6h1.4l1.9,6,.2,1.4h.1l.3-1.4,1.4-6h1.8L38,92.7H36.6L34.7,87l-.4-1.5h-.1L34,87l-1.8,5.8H30.8L28,83.2h1.8Z" fill="#005484"/>
      <path id="Path_52" data-name="Path 52" d="M48.3,92.7a2.2,2.2,0,0,1-.1-.8c0-.2-.1-.4-.1-.7a2.85,2.85,0,0,1-1.3,1.1,3.448,3.448,0,0,1-4-.3,2.865,2.865,0,0,1-.8-2.1,2.476,2.476,0,0,1,1.1-2.1,5.1,5.1,0,0,1,3-.8H48v-.9a1.727,1.727,0,0,0-.5-1.3,1.978,1.978,0,0,0-1.4-.5,2.116,2.116,0,0,0-1.4.4,1.107,1.107,0,0,0-.5,1H42.6v-.1a2.418,2.418,0,0,1,1-1.9,4,4,0,0,1,2.7-.9,4.237,4.237,0,0,1,2.6.8,2.719,2.719,0,0,1,1,2.4v4.6a3.4,3.4,0,0,0,.1,1c.1.3.1.6.2.9H48.3Zm-2.9-1.2a3.371,3.371,0,0,0,1.7-.5,2.591,2.591,0,0,0,1-1.1V88.4H46.2a2.86,2.86,0,0,0-1.7.5,1.563,1.563,0,0,0-.6,1.2,1.159,1.159,0,0,0,.4,1A1.82,1.82,0,0,0,45.4,91.5Z" fill="#005484"/>
      <path id="Path_53" data-name="Path 53" d="M57.9,90.2a.975.975,0,0,0-.4-.9,3.539,3.539,0,0,0-1.6-.6,7.055,7.055,0,0,1-2.6-1,1.965,1.965,0,0,1-.9-1.7,2.459,2.459,0,0,1,1-2,3.688,3.688,0,0,1,2.6-.8,3.573,3.573,0,0,1,2.6.9,2.966,2.966,0,0,1,1,2v.1H57.9a1.606,1.606,0,0,0-.5-1.1,2.168,2.168,0,0,0-1.4-.5,1.955,1.955,0,0,0-1.4.4,1.389,1.389,0,0,0-.5,1,.975.975,0,0,0,.4.9,5.346,5.346,0,0,0,1.6.6,6.941,6.941,0,0,1,2.7,1,2.019,2.019,0,0,1,.9,1.8,2.643,2.643,0,0,1-1,2.1,4.551,4.551,0,0,1-2.7.8,4.375,4.375,0,0,1-2.9-.9,2.7,2.7,0,0,1-1-2.2V90h1.7a1.435,1.435,0,0,0,.7,1.3,2.41,2.41,0,0,0,1.5.4,1.955,1.955,0,0,0,1.4-.4A1.823,1.823,0,0,0,57.9,90.2Z" fill="#005484"/>
      <path id="Path_54" data-name="Path 54" d="M64.2,80.9v2.3H66v1.3H64.2v5.8c0,.4.1.8.3.9a.908.908,0,0,0,.7.3h.3c.1,0,.2-.1.3-.1l.2,1.2a1.628,1.628,0,0,1-.6.3,1.952,1.952,0,0,1-.7.1,2.352,2.352,0,0,1-1.7-.6,2.814,2.814,0,0,1-.6-2V84.6H60.9V83.3h1.5V81h1.8Z" fill="#005484"/>
      <path id="Path_55" data-name="Path 55" d="M71.8,92.9a3.944,3.944,0,0,1-3.2-1.3,4.813,4.813,0,0,1-1.1-3.4v-.4a4.871,4.871,0,0,1,1.2-3.4,3.742,3.742,0,0,1,2.9-1.3,3.561,3.561,0,0,1,2.9,1.2,5.089,5.089,0,0,1,1,3.2v.9H69.4a3.921,3.921,0,0,0,.6,2.3,2.2,2.2,0,0,0,1.9.9,3.339,3.339,0,0,0,1.5-.3,4.129,4.129,0,0,0,1.1-.7l.7,1.1a4.11,4.11,0,0,1-1.3.8A4.918,4.918,0,0,1,71.8,92.9Zm-.3-8.5a1.8,1.8,0,0,0-1.5.7,3.594,3.594,0,0,0-.7,1.8h4.3v-.1a2.86,2.86,0,0,0-.5-1.7A2.015,2.015,0,0,0,71.5,84.4Z" fill="#005484"/>
      <path id="Path_56" data-name="Path 56" d="M78.8,92.3,77.5,95h-1l.6-2.8V90.8h1.7Z" fill="#005484"/>
      <path id="Path_57" data-name="Path 57" d="M87.7,80.9v2.3h1.8v1.3H87.7v5.8c0,.4.1.8.3.9a.908.908,0,0,0,.7.3H89c.1,0,.2-.1.3-.1l.2,1.2a1.628,1.628,0,0,1-.6.3,1.952,1.952,0,0,1-.7.1,2.352,2.352,0,0,1-1.7-.6,2.814,2.814,0,0,1-.6-2V84.6H84.4V83.3H86V81h1.7Z" fill="#005484"/>
      <path id="Path_58" data-name="Path 58" d="M95.3,92.9a3.944,3.944,0,0,1-3.2-1.3A4.813,4.813,0,0,1,91,88.2v-.4a4.871,4.871,0,0,1,1.2-3.4,3.742,3.742,0,0,1,2.9-1.3A3.561,3.561,0,0,1,98,84.3a5.089,5.089,0,0,1,1,3.2v.9H92.9a3.921,3.921,0,0,0,.6,2.3,2.2,2.2,0,0,0,1.9.9,3.339,3.339,0,0,0,1.5-.3,4.129,4.129,0,0,0,1.1-.7l.7,1.1a4.11,4.11,0,0,1-1.3.8A4.918,4.918,0,0,1,95.3,92.9ZM95,84.4a1.8,1.8,0,0,0-1.5.7,3.594,3.594,0,0,0-.7,1.8h4.3v-.1a2.86,2.86,0,0,0-.5-1.7A2.015,2.015,0,0,0,95,84.4Z" fill="#005484"/>
      <path id="Path_59" data-name="Path 59" d="M106.6,92.7a2.2,2.2,0,0,1-.1-.8c0-.2-.1-.4-.1-.7a2.85,2.85,0,0,1-1.3,1.1,3.448,3.448,0,0,1-4-.3,2.865,2.865,0,0,1-.8-2.1,2.476,2.476,0,0,1,1.1-2.1,5.1,5.1,0,0,1,3-.8h1.9v-.9a1.728,1.728,0,0,0-.5-1.3,1.978,1.978,0,0,0-1.4-.5,2.116,2.116,0,0,0-1.4.4,1.107,1.107,0,0,0-.5,1h-1.6v-.1a2.418,2.418,0,0,1,1-1.9,4,4,0,0,1,2.7-.9,4.237,4.237,0,0,1,2.6.8,2.719,2.719,0,0,1,1,2.4v4.6a3.4,3.4,0,0,0,.1,1c.1.3.1.6.2.9h-1.9v.2Zm-2.9-1.2a3.371,3.371,0,0,0,1.7-.5,2.591,2.591,0,0,0,1-1.1V88.4h-1.9a2.86,2.86,0,0,0-1.7.5,1.563,1.563,0,0,0-.6,1.2,1.159,1.159,0,0,0,.4,1A1.82,1.82,0,0,0,103.7,91.5Z" fill="#005484"/>
      <path id="Path_60" data-name="Path 60" d="M114.4,91.6a2.389,2.389,0,0,0,1.4-.5,1.76,1.76,0,0,0,.6-1.3H118v.1a2.779,2.779,0,0,1-1.1,2.2,3.946,3.946,0,0,1-2.5,1,3.809,3.809,0,0,1-3.1-1.4,5.331,5.331,0,0,1-1.1-3.4v-.4a5.536,5.536,0,0,1,1.1-3.4,3.809,3.809,0,0,1,3.1-1.4,3.392,3.392,0,0,1,2.6,1,3.25,3.25,0,0,1,1,2.4v.1h-1.6a2.035,2.035,0,0,0-.6-1.5,1.974,1.974,0,0,0-1.4-.6,2.058,2.058,0,0,0-1.9,1,4.751,4.751,0,0,0-.6,2.4v.4a4.265,4.265,0,0,0,.6,2.4A2.2,2.2,0,0,0,114.4,91.6Z" fill="#005484"/>
      <path id="Path_61" data-name="Path 61" d="M121.8,84.5a3.179,3.179,0,0,1,1.2-1.1,2.934,2.934,0,0,1,1.6-.4,3.244,3.244,0,0,1,2.4.9,3.761,3.761,0,0,1,.8,2.8v6h-1.7v-6a2.457,2.457,0,0,0-.5-1.7,1.755,1.755,0,0,0-1.5-.6,2.5,2.5,0,0,0-1.3.3,2.361,2.361,0,0,0-.9.8v7.1h-1.7V79h1.7l-.1,5.5Z" fill="#005484"/>
      <path id="Path_62" data-name="Path 62" d="M134.3,92.9a3.944,3.944,0,0,1-3.2-1.3,4.813,4.813,0,0,1-1.1-3.4v-.4a4.871,4.871,0,0,1,1.2-3.4,3.742,3.742,0,0,1,2.9-1.3,3.561,3.561,0,0,1,2.9,1.2,5.089,5.089,0,0,1,1,3.2v.9h-6.1a3.921,3.921,0,0,0,.6,2.3,2.2,2.2,0,0,0,1.9.9,3.339,3.339,0,0,0,1.5-.3,4.129,4.129,0,0,0,1.1-.7l.7,1.1a4.11,4.11,0,0,1-1.3.8A5.222,5.222,0,0,1,134.3,92.9Zm-.3-8.5a1.8,1.8,0,0,0-1.5.7,3.594,3.594,0,0,0-.7,1.8h4.3v-.1a2.86,2.86,0,0,0-.5-1.7A2.015,2.015,0,0,0,134,84.4Z" fill="#005484"/>
      <path id="Path_63" data-name="Path 63" d="M144.2,84.8l-.9-.1a2.375,2.375,0,0,0-1.2.3,1.272,1.272,0,0,0-.7.9v6.8h-1.7V83.2h1.5l.2,1.4a4,4,0,0,1,1-1.2,2.3,2.3,0,0,1,1.4-.4h.4a.367.367,0,0,1,.3.1Z" fill="#005484"/>
      <path id="Path_64" data-name="Path 64" d="M151.6,90.2a.975.975,0,0,0-.4-.9,3.539,3.539,0,0,0-1.6-.6,7.055,7.055,0,0,1-2.6-1,1.965,1.965,0,0,1-.9-1.7,2.459,2.459,0,0,1,1-2,3.688,3.688,0,0,1,2.6-.8,3.573,3.573,0,0,1,2.6.9,2.966,2.966,0,0,1,1,2v.1h-1.7a1.606,1.606,0,0,0-.5-1.1,2.168,2.168,0,0,0-1.4-.5,1.955,1.955,0,0,0-1.4.4,1.389,1.389,0,0,0-.5,1,.975.975,0,0,0,.4.9,5.346,5.346,0,0,0,1.6.6,6.941,6.941,0,0,1,2.7,1,2.019,2.019,0,0,1,.9,1.8,2.643,2.643,0,0,1-1,2.1,3.955,3.955,0,0,1-2.7.8,4.375,4.375,0,0,1-2.9-.9,2.7,2.7,0,0,1-1-2.2V90h1.7a1.435,1.435,0,0,0,.7,1.3,2.41,2.41,0,0,0,1.5.4,1.955,1.955,0,0,0,1.4-.4A1.823,1.823,0,0,0,151.6,90.2Z" fill="#005484"/>
    </g>
    <g id="Group_12" data-name="Group 12" style="isolation: isolate">
      <path id="Path_65" data-name="Path 65" d="M31.3,112.3l.2,1.2h.1l.2-1.2,1.9-6h1.4l1.9,6,.2,1.4h.1l.3-1.4,1.4-6h1.8L38,115.8H36.6L34.7,110l-.4-1.5h-.1L34,110l-1.8,5.8H30.8L28,106.3h1.8Z" fill="#005484"/>
      <path id="Path_66" data-name="Path 66" d="M46.4,115.9a3.944,3.944,0,0,1-3.2-1.3,4.813,4.813,0,0,1-1.1-3.4v-.4a4.871,4.871,0,0,1,1.2-3.4,3.742,3.742,0,0,1,2.9-1.3,3.561,3.561,0,0,1,2.9,1.2,4.554,4.554,0,0,1,1,3.2v.9H44a3.921,3.921,0,0,0,.6,2.3,2.2,2.2,0,0,0,1.9.9,3.339,3.339,0,0,0,1.5-.3,4.129,4.129,0,0,0,1.1-.7l.7,1.1a4.11,4.11,0,0,1-1.3.8A4.638,4.638,0,0,1,46.4,115.9Zm-.3-8.5a1.8,1.8,0,0,0-1.5.7,3.594,3.594,0,0,0-.7,1.8h4.3v-.1a2.86,2.86,0,0,0-.5-1.7A2.015,2.015,0,0,0,46.1,107.4Z" fill="#005484"/>
      <path id="Path_67" data-name="Path 67" d="M56.4,107.8l-.9-.1a2.375,2.375,0,0,0-1.2.3,1.272,1.272,0,0,0-.7.9v6.8H51.9v-9.5h1.5l.2,1.4a4,4,0,0,1,1-1.2A2.3,2.3,0,0,1,56,106h.4a.367.367,0,0,1,.3.1Z" fill="#005484"/>
      <path id="Path_68" data-name="Path 68" d="M62,115.9a3.944,3.944,0,0,1-3.2-1.3,4.813,4.813,0,0,1-1.1-3.4v-.4a4.871,4.871,0,0,1,1.2-3.4,3.742,3.742,0,0,1,2.9-1.3,3.561,3.561,0,0,1,2.9,1.2,5.089,5.089,0,0,1,1,3.2v.9H59.6a3.921,3.921,0,0,0,.6,2.3,2.2,2.2,0,0,0,1.9.9,3.339,3.339,0,0,0,1.5-.3,4.129,4.129,0,0,0,1.1-.7l.7,1.1a4.11,4.11,0,0,1-1.3.8A5.222,5.222,0,0,1,62,115.9Zm-.3-8.5a1.8,1.8,0,0,0-1.5.7,3.594,3.594,0,0,0-.7,1.8h4.3v-.1a2.86,2.86,0,0,0-.5-1.7A2.015,2.015,0,0,0,61.7,107.4Z" fill="#005484"/>
      <path id="Path_69" data-name="Path 69" d="M73.5,106.2l.1,1.4a3.447,3.447,0,0,1,1.2-1.2,2.934,2.934,0,0,1,1.6-.4,3.244,3.244,0,0,1,2.4.9,3.761,3.761,0,0,1,.8,2.8v6H77.9v-6a2.969,2.969,0,0,0-.5-1.8,1.721,1.721,0,0,0-1.5-.5,3.194,3.194,0,0,0-1.4.3,1.962,1.962,0,0,0-.9.9v7.1H71.9v-9.5Z" fill="#005484"/>
      <path id="Path_70" data-name="Path 70" d="M81.7,110.9a5.625,5.625,0,0,1,1.1-3.5,4.132,4.132,0,0,1,6.2,0,5.074,5.074,0,0,1,1.1,3.5v.2a5.625,5.625,0,0,1-1.1,3.5,4.132,4.132,0,0,1-6.2,0,5.074,5.074,0,0,1-1.1-3.5Zm1.8.2a4.871,4.871,0,0,0,.6,2.5,2.305,2.305,0,0,0,3.8,0,4.871,4.871,0,0,0,.6-2.5v-.2a4.871,4.871,0,0,0-.6-2.5,2.305,2.305,0,0,0-3.8,0,4.871,4.871,0,0,0-.6,2.5Z" fill="#005484"/>
      <path id="Path_71" data-name="Path 71" d="M96.5,111.2a6.006,6.006,0,0,1,1-3.7,3.32,3.32,0,0,1,2.7-1.4,2.934,2.934,0,0,1,1.6.4,5.8,5.8,0,0,1,1.2,1l.2-1.2h1.4v9.6a3.609,3.609,0,0,1-1.1,2.8,4.139,4.139,0,0,1-3.1,1,7.719,7.719,0,0,1-1.5-.2,5.783,5.783,0,0,1-1.4-.5l.3-1.3a3.373,3.373,0,0,0,1.2.4,6.753,6.753,0,0,0,1.4.2,2.294,2.294,0,0,0,1.8-.6,2.445,2.445,0,0,0,.6-1.8v-1.1a3.126,3.126,0,0,1-1.1.9,3.339,3.339,0,0,1-1.5.3,2.992,2.992,0,0,1-2.7-1.3,4.826,4.826,0,0,1-1-3.3Zm1.8.2a3.921,3.921,0,0,0,.6,2.3,2.019,2.019,0,0,0,1.8.9,1.844,1.844,0,0,0,1.3-.4c.4-.2.6-.6.9-1v-4.4a2.538,2.538,0,0,0-2.2-1.4,1.9,1.9,0,0,0-1.8,1,5.4,5.4,0,0,0-.6,2.7Z" fill="#005484"/>
      <path id="Path_72" data-name="Path 72" d="M106.7,110.9a5.625,5.625,0,0,1,1.1-3.5,4.132,4.132,0,0,1,6.2,0,5.074,5.074,0,0,1,1.1,3.5v.2a5.625,5.625,0,0,1-1.1,3.5,4.132,4.132,0,0,1-6.2,0,5.074,5.074,0,0,1-1.1-3.5Zm1.7.2a4.871,4.871,0,0,0,.6,2.5,2.305,2.305,0,0,0,3.8,0,4.871,4.871,0,0,0,.6-2.5v-.2a4.871,4.871,0,0,0-.6-2.5,2.305,2.305,0,0,0-3.8,0,4.871,4.871,0,0,0-.6,2.5Z" fill="#005484"/>
      <path id="Path_73" data-name="Path 73" d="M116.9,110.9a5.625,5.625,0,0,1,1.1-3.5,4.132,4.132,0,0,1,6.2,0,5.074,5.074,0,0,1,1.1,3.5v.2a5.625,5.625,0,0,1-1.1,3.5,4.132,4.132,0,0,1-6.2,0,5.074,5.074,0,0,1-1.1-3.5Zm1.7.2a4.871,4.871,0,0,0,.6,2.5,2.305,2.305,0,0,0,3.8,0,4.871,4.871,0,0,0,.6-2.5v-.2a4.871,4.871,0,0,0-.6-2.5,2.305,2.305,0,0,0-3.8,0,4.871,4.871,0,0,0-.6,2.5Z" fill="#005484"/>
      <path id="Path_74" data-name="Path 74" d="M127.1,111.2a6.006,6.006,0,0,1,1-3.7,3.471,3.471,0,0,1,4.2-1.1,3.126,3.126,0,0,1,1.1.9V102h1.7v13.7h-1.3l-.3-1.2a2.335,2.335,0,0,1-1.2,1,4.193,4.193,0,0,1-1.6.4,2.992,2.992,0,0,1-2.7-1.3,5.088,5.088,0,0,1-.9-3.4Zm1.8.2a3.921,3.921,0,0,0,.6,2.3,2.274,2.274,0,0,0,3.1.5,4.3,4.3,0,0,0,.9-1v-4.4a1.962,1.962,0,0,0-.9-.9,2.768,2.768,0,0,0-1.3-.3,1.9,1.9,0,0,0-1.8,1,5.4,5.4,0,0,0-.6,2.7Z" fill="#005484"/>
      <path id="Path_75" data-name="Path 75" d="M139.7,115.7H138V114h1.7Z" fill="#005484"/>
    </g>
    <g id="Group_14" data-name="Group 14">
      <g id="Group_13" data-name="Group 13" style="isolation: isolate">
        <path id="Path_76" data-name="Path 76" d="M49.2,257.1H47.3V236.2l-5.3.6v-1.5l7.2-1.1Z" fill="#0a99e0"/>
        <path id="Path_77" data-name="Path 77" d="M65.1,244.8a5.148,5.148,0,0,0,3.7-1.2,4.387,4.387,0,0,0,1.3-3.1,4.79,4.79,0,0,0-1.2-3.3,4.674,4.674,0,0,0-3.5-1.3,5.154,5.154,0,0,0-3.6,1.3,4.534,4.534,0,0,0-1.4,3.3H58.7v-.1a5.438,5.438,0,0,1,1.9-4.4,6.824,6.824,0,0,1,4.9-1.7,6.389,6.389,0,0,1,4.7,1.6,5.8,5.8,0,0,1,1.8,4.5,4.719,4.719,0,0,1-1,3,5.245,5.245,0,0,1-2.6,2,5.915,5.915,0,0,1,3,2,5.584,5.584,0,0,1,1,3.5,5.83,5.83,0,0,1-1.9,4.7,7.293,7.293,0,0,1-4.9,1.7,8.452,8.452,0,0,1-5.1-1.7,5.1,5.1,0,0,1-2.1-4.6v-.1h1.7a4.691,4.691,0,0,0,1.5,3.5,5.21,5.21,0,0,0,3.9,1.4,4.924,4.924,0,0,0,3.7-1.3,4.6,4.6,0,0,0,1.3-3.5,4.232,4.232,0,0,0-1.4-3.5,5.972,5.972,0,0,0-4-1.2H63v-1.6h2.1Z" fill="#0a99e0"/>
        <path id="Path_78" data-name="Path 78" d="M75.8,239a4.79,4.79,0,0,1,1.2-3.3,4.588,4.588,0,0,1,6.4,0,4.79,4.79,0,0,1,1.2,3.3v1.2a4.79,4.79,0,0,1-1.2,3.3,4.01,4.01,0,0,1-3.1,1.3,4.08,4.08,0,0,1-3.2-1.3,4.79,4.79,0,0,1-1.2-3.3l-.1-1.2Zm1.4,1.2a3.566,3.566,0,0,0,.8,2.3,2.716,2.716,0,0,0,2.2,1,2.393,2.393,0,0,0,2.1-1,3.691,3.691,0,0,0,.7-2.3V239a3.566,3.566,0,0,0-.8-2.3,2.658,2.658,0,0,0-2.1-1,2.7,2.7,0,0,0-2.2,1,3.566,3.566,0,0,0-.8,2.3v1.2Zm3.4,15.1-1.1-.7,11-17.6,1.1.7Zm6.5-3.7a4.79,4.79,0,0,1,1.2-3.3,4.588,4.588,0,0,1,6.4,0,4.79,4.79,0,0,1,1.2,3.3v1.2a4.79,4.79,0,0,1-1.2,3.3,4.588,4.588,0,0,1-6.4,0,4.79,4.79,0,0,1-1.2-3.3Zm1.4,1.2a3.566,3.566,0,0,0,.8,2.3,2.716,2.716,0,0,0,2.2,1,2.393,2.393,0,0,0,2.1-1,3.506,3.506,0,0,0,.7-2.3v-1.2a3.566,3.566,0,0,0-.8-2.3,2.9,2.9,0,0,0-4.2,0,3.566,3.566,0,0,0-.8,2.3Z" fill="#0a99e0"/>
      </g>
    </g>
    <g id="Group_15" data-name="Group 15" style="isolation: isolate">
      <path id="Path_79" data-name="Path 79" d="M487,86.2h-1.7V73.4H487Z" fill="#0f6d96"/>
      <path id="Path_80" data-name="Path 80" d="M492.4,74.4v2.3h1.8V78h-1.8v5.8c0,.4.1.8.3.9a1.493,1.493,0,0,0,.7.3h.3c.1,0,.2-.1.3-.1l.2,1.2a1.628,1.628,0,0,1-.6.3,1.952,1.952,0,0,1-.7.1,2.352,2.352,0,0,1-1.7-.6,2.814,2.814,0,0,1-.6-2V78h-1.5V76.7h1.5V74.4Z" fill="#0f6d96"/>
      <path id="Path_81" data-name="Path 81" d="M502.9,82.7l.2,1.2h.1l.2-1.2,1.9-6h1.4l1.9,6,.2,1.4h.1l.3-1.4,1.4-6h1.8l-2.8,9.5h-1.4l-1.9-5.8-.4-1.5h.1l-.3,1.5-1.8,5.8h-1.4l-2.8-9.5h1.8Z" fill="#0f6d96"/>
      <path id="Path_82" data-name="Path 82" d="M520,86.2a2.2,2.2,0,0,1-.1-.8c0-.2-.1-.4-.1-.7a2.85,2.85,0,0,1-1.3,1.1,3.448,3.448,0,0,1-4-.3,2.865,2.865,0,0,1-.8-2.1,2.476,2.476,0,0,1,1.1-2.1,5.1,5.1,0,0,1,3-.8h1.9v-.9a1.728,1.728,0,0,0-.5-1.3,1.978,1.978,0,0,0-1.4-.5,2.116,2.116,0,0,0-1.4.4,1.107,1.107,0,0,0-.5,1h-1.6v-.1a2.418,2.418,0,0,1,1-1.9,4,4,0,0,1,2.7-.9,4.237,4.237,0,0,1,2.6.8,2.719,2.719,0,0,1,1,2.4v4.6a3.4,3.4,0,0,0,.1,1c.1.3.1.6.2.9H520Zm-2.9-1.3a3.371,3.371,0,0,0,1.7-.5,2.591,2.591,0,0,0,1-1.1V81.8h-1.9a2.86,2.86,0,0,0-1.7.5,1.729,1.729,0,0,0-.6,1.2,1.16,1.16,0,0,0,.4,1A1.82,1.82,0,0,0,517.1,84.9Z" fill="#0f6d96"/>
      <path id="Path_83" data-name="Path 83" d="M529.5,83.6a.975.975,0,0,0-.4-.9,3.539,3.539,0,0,0-1.6-.6,7.054,7.054,0,0,1-2.6-1,1.965,1.965,0,0,1-.9-1.7,2.459,2.459,0,0,1,1-2,3.688,3.688,0,0,1,2.6-.8,3.573,3.573,0,0,1,2.6.9,2.966,2.966,0,0,1,1,2v.1h-1.7a1.606,1.606,0,0,0-.5-1.1,2.168,2.168,0,0,0-1.4-.5,1.955,1.955,0,0,0-1.4.4,1.389,1.389,0,0,0-.5,1,.975.975,0,0,0,.4.9,5.347,5.347,0,0,0,1.6.6,6.941,6.941,0,0,1,2.7,1,2.019,2.019,0,0,1,.9,1.8,2.643,2.643,0,0,1-1,2.1,4.551,4.551,0,0,1-2.7.8,4.374,4.374,0,0,1-2.9-.9,2.7,2.7,0,0,1-1-2.2v-.1h1.7a1.435,1.435,0,0,0,.7,1.3,2.41,2.41,0,0,0,1.5.4,1.955,1.955,0,0,0,1.4-.4A1.274,1.274,0,0,0,529.5,83.6Z" fill="#0f6d96"/>
      <path id="Path_84" data-name="Path 84" d="M542.4,78.2l-.9-.1a2.375,2.375,0,0,0-1.2.3,1.6,1.6,0,0,0-.7.9v6.8h-1.7V76.6h1.5l.2,1.4a4,4,0,0,1,1-1.2,2.3,2.3,0,0,1,1.4-.4h.4a.367.367,0,0,1,.3.1Z" fill="#0f6d96"/>
      <path id="Path_85" data-name="Path 85" d="M548,86.4a3.944,3.944,0,0,1-3.2-1.3,4.813,4.813,0,0,1-1.1-3.4v-.4a4.871,4.871,0,0,1,1.2-3.4,3.742,3.742,0,0,1,2.9-1.3,3.561,3.561,0,0,1,2.9,1.2,5.089,5.089,0,0,1,1,3.2v.9h-6.1a3.92,3.92,0,0,0,.6,2.3,2.2,2.2,0,0,0,1.9.9,3.339,3.339,0,0,0,1.5-.3,4.129,4.129,0,0,0,1.1-.7l.7,1.1a4.111,4.111,0,0,1-1.3.8A4.918,4.918,0,0,1,548,86.4Zm-.3-8.5a1.8,1.8,0,0,0-1.5.7,3.594,3.594,0,0,0-.7,1.8h4.3v-.1a2.86,2.86,0,0,0-.5-1.7A2.015,2.015,0,0,0,547.7,77.9Z" fill="#0f6d96"/>
      <path id="Path_86" data-name="Path 86" d="M559.3,86.2a2.2,2.2,0,0,1-.1-.8c0-.2-.1-.4-.1-.7a2.85,2.85,0,0,1-1.3,1.1,3.448,3.448,0,0,1-4-.3,2.865,2.865,0,0,1-.8-2.1,2.476,2.476,0,0,1,1.1-2.1,5.1,5.1,0,0,1,3-.8H559v-.9a1.728,1.728,0,0,0-.5-1.3,1.978,1.978,0,0,0-1.4-.5,2.116,2.116,0,0,0-1.4.4,1.107,1.107,0,0,0-.5,1h-1.6v-.1a2.418,2.418,0,0,1,1-1.9,4,4,0,0,1,2.7-.9,4.237,4.237,0,0,1,2.6.8,2.719,2.719,0,0,1,1,2.4v4.6a3.4,3.4,0,0,0,.1,1c.1.3.1.6.2.9h-1.9Zm-2.9-1.3a3.371,3.371,0,0,0,1.7-.5,2.591,2.591,0,0,0,1-1.1V81.8h-1.9a2.86,2.86,0,0,0-1.7.5,1.729,1.729,0,0,0-.6,1.2,1.159,1.159,0,0,0,.4,1A1.82,1.82,0,0,0,556.4,84.9Z" fill="#0f6d96"/>
      <path id="Path_87" data-name="Path 87" d="M565.2,86.2h-1.7V72.5h1.7Z" fill="#0f6d96"/>
      <path id="Path_88" data-name="Path 88" d="M569.8,86.2H568V72.5h1.7l.1,13.7Z" fill="#0f6d96"/>
      <path id="Path_89" data-name="Path 89" d="M575.3,82.7l.3,1.2h.1l2.3-7.2h1.9l-4,11a5.855,5.855,0,0,1-1,1.7,2.268,2.268,0,0,1-1.8.7h-.5a4.335,4.335,0,0,1-.5-.1l.2-1.4h.8a1.05,1.05,0,0,0,.9-.5,10.9,10.9,0,0,0,.6-1.1l.4-1-3.5-9.3h1.9Z" fill="#0f6d96"/>
    </g>
    <g id="Group_16" data-name="Group 16" style="isolation: isolate">
      <path id="Path_90" data-name="Path 90" d="M533.2,107.8A3.447,3.447,0,0,1,532,109a2.934,2.934,0,0,1-1.6.4,2.965,2.965,0,0,1-2.4-1,4.589,4.589,0,0,1-.9-3.1V99.7h1.7v5.6a3.694,3.694,0,0,0,.4,2.1,1.678,1.678,0,0,0,1.4.6,2.41,2.41,0,0,0,1.5-.4,2.012,2.012,0,0,0,.9-1.1V99.6h1.7v9.5h-1.6Z" fill="#0f6d96"/>
      <path id="Path_91" data-name="Path 91" d="M542.9,106.6a.975.975,0,0,0-.4-.9,3.539,3.539,0,0,0-1.6-.6,7.055,7.055,0,0,1-2.6-1,1.965,1.965,0,0,1-.9-1.7,2.459,2.459,0,0,1,1-2,3.688,3.688,0,0,1,2.6-.8,3.573,3.573,0,0,1,2.6.9,2.966,2.966,0,0,1,1,2v.1h-1.7a1.606,1.606,0,0,0-.5-1.1,1.978,1.978,0,0,0-1.4-.5,1.955,1.955,0,0,0-1.4.4,1.389,1.389,0,0,0-.5,1,.975.975,0,0,0,.4.9,5.346,5.346,0,0,0,1.6.6,6.94,6.94,0,0,1,2.7,1,2.019,2.019,0,0,1,.9,1.8,2.643,2.643,0,0,1-1,2.1,3.955,3.955,0,0,1-2.7.8,4.375,4.375,0,0,1-2.9-.9,2.7,2.7,0,0,1-1-2.2v-.1h1.7a1.435,1.435,0,0,0,.7,1.3,2.41,2.41,0,0,0,1.5.4,1.955,1.955,0,0,0,1.4-.4A1.606,1.606,0,0,0,542.9,106.6Z" fill="#0f6d96"/>
      <path id="Path_92" data-name="Path 92" d="M550.7,109.4a3.944,3.944,0,0,1-3.2-1.3,4.813,4.813,0,0,1-1.1-3.4v-.4a4.871,4.871,0,0,1,1.2-3.4,3.742,3.742,0,0,1,2.9-1.3,3.561,3.561,0,0,1,2.9,1.2,4.555,4.555,0,0,1,1,3.2v.9h-6.1a3.92,3.92,0,0,0,.6,2.3,2.2,2.2,0,0,0,1.9.9,3.339,3.339,0,0,0,1.5-.3,4.13,4.13,0,0,0,1.1-.7l.7,1.1a4.11,4.11,0,0,1-1.3.8A4.638,4.638,0,0,1,550.7,109.4Zm-.2-8.5a1.8,1.8,0,0,0-1.5.7,3.594,3.594,0,0,0-.7,1.8h4.3v-.1a2.86,2.86,0,0,0-.5-1.7A2.015,2.015,0,0,0,550.5,100.9Z" fill="#0f6d96"/>
      <path id="Path_93" data-name="Path 93" d="M557,109.2V101h-1.5V99.7H557V98.5a3.649,3.649,0,0,1,.8-2.4,2.732,2.732,0,0,1,2.2-.8h.6c.2,0,.4.1.7.1l-.2,1.3a.756.756,0,0,1-.4-.1h-.5a1.29,1.29,0,0,0-1.1.5,2.227,2.227,0,0,0-.4,1.3v1.2h1.7v1.3h-1.7v8.2l-1.7.1Z" fill="#0f6d96"/>
      <path id="Path_94" data-name="Path 94" d="M568.2,107.8A3.447,3.447,0,0,1,567,109a2.934,2.934,0,0,1-1.6.4,2.965,2.965,0,0,1-2.4-1,4.589,4.589,0,0,1-.9-3.1V99.7h1.7v5.6a3.694,3.694,0,0,0,.4,2.1,1.678,1.678,0,0,0,1.4.6,2.41,2.41,0,0,0,1.5-.4,2.012,2.012,0,0,0,.9-1.1V99.6h1.7v9.5h-1.6Z" fill="#0f6d96"/>
      <path id="Path_95" data-name="Path 95" d="M574.3,109.2h-1.7V95.5h1.7Z" fill="#0f6d96"/>
      <path id="Path_96" data-name="Path 96" d="M578.9,105h-1.7V96.4h1.7Zm0,4.2h-1.7v-1.8h1.7Z" fill="#0f6d96"/>
    </g>
    <g id="Group_18" data-name="Group 18">
      <g id="Group_17" data-name="Group 17" style="isolation: isolate">
        <path id="Path_97" data-name="Path 97" d="M538,59.1H524.3V57.7l7.4-8.6a23.281,23.281,0,0,0,2.7-3.8,6.688,6.688,0,0,0,.8-2.9,4.591,4.591,0,0,0-1.1-3.2,4.163,4.163,0,0,0-3.3-1.2,4.975,4.975,0,0,0-3.7,1.4,5.155,5.155,0,0,0-1.3,3.6h-1.7v-.1a5.96,5.96,0,0,1,1.8-4.7,6.485,6.485,0,0,1,5-1.9,6.054,6.054,0,0,1,4.5,1.6,5.873,5.873,0,0,1,1.7,4.4,7.17,7.17,0,0,1-1.1,3.6,35.863,35.863,0,0,1-3.2,4.4l-6.1,7.1v.1H538Z" fill="#0f6d96"/>
        <path id="Path_98" data-name="Path 98" d="M555.3,51.1c0,2.6-.6,4.6-1.9,6a6.563,6.563,0,0,1-5.1,2.2,6.121,6.121,0,0,1-5.1-2.2,9.36,9.36,0,0,1-1.9-6V44.5a8.82,8.82,0,0,1,1.9-6,6.251,6.251,0,0,1,5.1-2.2,6.121,6.121,0,0,1,5.1,2.2,9.36,9.36,0,0,1,1.9,6Zm-1.9-6.9a7.491,7.491,0,0,0-1.3-4.7,4.438,4.438,0,0,0-3.8-1.7,4.715,4.715,0,0,0-3.8,1.7,7.491,7.491,0,0,0-1.3,4.7v7.2a7.686,7.686,0,0,0,1.3,4.7,4.516,4.516,0,0,0,3.8,1.8,4.715,4.715,0,0,0,3.8-1.7,7.491,7.491,0,0,0,1.3-4.7Z" fill="#0f6d96"/>
        <path id="Path_99" data-name="Path 99" d="M558.7,40.9a4.79,4.79,0,0,1,1.2-3.3,4.588,4.588,0,0,1,6.4,0,4.79,4.79,0,0,1,1.2,3.3v1.2a4.79,4.79,0,0,1-1.2,3.3,4.01,4.01,0,0,1-3.1,1.3,4.08,4.08,0,0,1-3.2-1.3,4.79,4.79,0,0,1-1.2-3.3V40.9Zm1.5,1.2a3.566,3.566,0,0,0,.8,2.3,2.716,2.716,0,0,0,2.2,1,2.393,2.393,0,0,0,2.1-1,3.691,3.691,0,0,0,.7-2.3V40.9a3.566,3.566,0,0,0-.8-2.3,2.658,2.658,0,0,0-2.1-1,2.7,2.7,0,0,0-2.2,1,3.566,3.566,0,0,0-.8,2.3l.1,1.2Zm3.4,15.1-1.1-.7,11-17.6,1.1.7Zm6.4-3.6a4.79,4.79,0,0,1,1.2-3.3,4.588,4.588,0,0,1,6.4,0,4.79,4.79,0,0,1,1.2,3.3v1.2a4.79,4.79,0,0,1-1.2,3.3,4.588,4.588,0,0,1-6.4,0,4.79,4.79,0,0,1-1.2-3.3Zm1.5,1.2a3.566,3.566,0,0,0,.8,2.3,2.716,2.716,0,0,0,2.2,1,2.393,2.393,0,0,0,2.1-1,3.506,3.506,0,0,0,.7-2.3V53.6a3.566,3.566,0,0,0-.8-2.3,2.9,2.9,0,0,0-4.2,0,3.566,3.566,0,0,0-.8,2.3v1.2Z" fill="#0f6d96"/>
      </g>
    </g>
    <g id="Group_19" data-name="Group 19" style="isolation: isolate">
      <path id="Path_100" data-name="Path 100" d="M474.9,271.8h0a4.143,4.143,0,0,1-1.2,3.1,4.7,4.7,0,0,1-3.4,1.2,4.539,4.539,0,0,1-3.5-1.5,5.637,5.637,0,0,1-1.4-3.9v-2.3a5.637,5.637,0,0,1,1.4-3.9,4.539,4.539,0,0,1,3.5-1.5,5.129,5.129,0,0,1,3.5,1.2,3.516,3.516,0,0,1,1.2,3.1v.1h-1.7a2.865,2.865,0,0,0-.8-2.1,3.113,3.113,0,0,0-2.2-.8,2.676,2.676,0,0,0-2.3,1.2,4.563,4.563,0,0,0-.9,2.9v2.3a4.563,4.563,0,0,0,.9,2.9,2.676,2.676,0,0,0,2.3,1.2,2.947,2.947,0,0,0,2.2-.8,2.865,2.865,0,0,0,.8-2.1h1.6Z" fill="#0084d1"/>
      <path id="Path_101" data-name="Path 101" d="M476.5,271a5.625,5.625,0,0,1,1.1-3.5,4.132,4.132,0,0,1,6.2,0,5.625,5.625,0,0,1,1.1,3.5v.2a5.625,5.625,0,0,1-1.1,3.5,4.132,4.132,0,0,1-6.2,0,5.074,5.074,0,0,1-1.1-3.5Zm1.7.2a4.871,4.871,0,0,0,.6,2.5,2.305,2.305,0,0,0,3.8,0,4.871,4.871,0,0,0,.6-2.5V271a4.871,4.871,0,0,0-.6-2.5,2.305,2.305,0,0,0-3.8,0,4.871,4.871,0,0,0-.6,2.5Z" fill="#0084d1"/>
      <path id="Path_102" data-name="Path 102" d="M489,275.9h-1.7V262.2H489Z" fill="#0084d1"/>
      <path id="Path_103" data-name="Path 103" d="M493.5,275.9h-1.7V262.2h1.7Z" fill="#0084d1"/>
      <path id="Path_104" data-name="Path 104" d="M500.1,276a3.944,3.944,0,0,1-3.2-1.3,4.813,4.813,0,0,1-1.1-3.4v-.4a4.871,4.871,0,0,1,1.2-3.4,3.742,3.742,0,0,1,2.9-1.3,3.561,3.561,0,0,1,2.9,1.2,5.089,5.089,0,0,1,1,3.2v.9h-6.1a3.921,3.921,0,0,0,.6,2.3,2.2,2.2,0,0,0,1.9.9,3.339,3.339,0,0,0,1.5-.3,4.129,4.129,0,0,0,1.1-.7l.7,1.1a4.11,4.11,0,0,1-1.3.8A4.638,4.638,0,0,1,500.1,276Zm-.2-8.5a1.8,1.8,0,0,0-1.5.7,3.594,3.594,0,0,0-.7,1.8H502v-.1a2.86,2.86,0,0,0-.5-1.7A2.015,2.015,0,0,0,499.9,267.5Z" fill="#0084d1"/>
      <path id="Path_105" data-name="Path 105" d="M505.3,271.3a6.006,6.006,0,0,1,1-3.7,3.32,3.32,0,0,1,2.7-1.4,2.934,2.934,0,0,1,1.6.4,5.8,5.8,0,0,1,1.2,1l.2-1.2h1.4V276a3.609,3.609,0,0,1-1.1,2.8,4.139,4.139,0,0,1-3.1,1,7.719,7.719,0,0,1-1.5-.2,5.784,5.784,0,0,1-1.4-.5l.3-1.3a3.373,3.373,0,0,0,1.2.4,6.754,6.754,0,0,0,1.4.2,2.294,2.294,0,0,0,1.8-.6,2.445,2.445,0,0,0,.6-1.8v-1.1a3.126,3.126,0,0,1-1.1.9,3.339,3.339,0,0,1-1.5.3,2.992,2.992,0,0,1-2.7-1.3,4.826,4.826,0,0,1-1-3.3v-.2Zm1.7.2a3.921,3.921,0,0,0,.6,2.3,2.019,2.019,0,0,0,1.8.9,1.844,1.844,0,0,0,1.3-.4c.4-.2.6-.6.9-1v-4.4a2.538,2.538,0,0,0-2.2-1.4,1.9,1.9,0,0,0-1.8,1,5.4,5.4,0,0,0-.6,2.7Z" fill="#0084d1"/>
      <path id="Path_106" data-name="Path 106" d="M519.8,276a3.944,3.944,0,0,1-3.2-1.3,4.813,4.813,0,0,1-1.1-3.4v-.4a4.871,4.871,0,0,1,1.2-3.4,3.742,3.742,0,0,1,2.9-1.3,3.561,3.561,0,0,1,2.9,1.2,5.089,5.089,0,0,1,1,3.2v.9h-6.1a3.92,3.92,0,0,0,.6,2.3,2.2,2.2,0,0,0,1.9.9,3.339,3.339,0,0,0,1.5-.3,4.129,4.129,0,0,0,1.1-.7l.7,1.1a4.11,4.11,0,0,1-1.3.8A4.919,4.919,0,0,1,519.8,276Zm-.3-8.5a1.8,1.8,0,0,0-1.5.7,3.594,3.594,0,0,0-.7,1.8h4.3v-.1a2.86,2.86,0,0,0-.5-1.7A2.015,2.015,0,0,0,519.5,267.5Z" fill="#0084d1"/>
      <path id="Path_107" data-name="Path 107" d="M532.2,272.4l.2,1.2h.1l.2-1.2,1.9-6H536l1.9,6,.2,1.4h.1l.3-1.4,1.4-6h1.8l-2.8,9.5h-1.4l-1.9-5.8-.4-1.5h-.1l-.3,1.5-1.8,5.8h-1.4l-2.8-9.5h1.8Z" fill="#0084d1"/>
      <path id="Path_108" data-name="Path 108" d="M549.2,275.9a2.2,2.2,0,0,1-.1-.8c0-.2-.1-.4-.1-.7a2.85,2.85,0,0,1-1.3,1.1,3.448,3.448,0,0,1-4-.3,2.865,2.865,0,0,1-.8-2.1A2.476,2.476,0,0,1,544,271a5.1,5.1,0,0,1,3-.8h1.9v-.9a1.728,1.728,0,0,0-.5-1.3,1.978,1.978,0,0,0-1.4-.5,2.116,2.116,0,0,0-1.4.4,1.108,1.108,0,0,0-.5,1h-1.6v-.1a2.418,2.418,0,0,1,1-1.9,4,4,0,0,1,2.7-.9,4.237,4.237,0,0,1,2.6.8,2.719,2.719,0,0,1,1,2.4v4.6a3.4,3.4,0,0,0,.1,1c.1.3.1.6.2.9h-1.9Zm-2.9-1.3a3.371,3.371,0,0,0,1.7-.5,2.591,2.591,0,0,0,1-1.1v-1.5h-1.9a2.86,2.86,0,0,0-1.7.5,1.563,1.563,0,0,0-.6,1.2,1.16,1.16,0,0,0,.4,1A1.82,1.82,0,0,0,546.3,274.6Z" fill="#0084d1"/>
      <path id="Path_109" data-name="Path 109" d="M558.8,273.3a.975.975,0,0,0-.4-.9,3.54,3.54,0,0,0-1.6-.6,7.054,7.054,0,0,1-2.6-1,1.965,1.965,0,0,1-.9-1.7,2.459,2.459,0,0,1,1-2,3.688,3.688,0,0,1,2.6-.8,3.573,3.573,0,0,1,2.6.9,2.966,2.966,0,0,1,1,2v.1h-1.7a1.606,1.606,0,0,0-.5-1.1,2.168,2.168,0,0,0-1.4-.5,1.955,1.955,0,0,0-1.4.4,1.389,1.389,0,0,0-.5,1,.975.975,0,0,0,.4.9,5.346,5.346,0,0,0,1.6.6,6.941,6.941,0,0,1,2.7,1,2.019,2.019,0,0,1,.9,1.8,2.643,2.643,0,0,1-1,2.1,3.954,3.954,0,0,1-2.7.8,4.375,4.375,0,0,1-2.9-.9,2.7,2.7,0,0,1-1-2.2v-.1h1.7a1.435,1.435,0,0,0,.7,1.3,2.41,2.41,0,0,0,1.5.4,1.955,1.955,0,0,0,1.4-.4A1.823,1.823,0,0,0,558.8,273.3Z" fill="#0084d1"/>
    </g>
    <g id="Group_20" data-name="Group 20" style="isolation: isolate">
      <path id="Path_110" data-name="Path 110" d="M477.3,294.3a6.006,6.006,0,0,1,1-3.7,3.32,3.32,0,0,1,2.7-1.4,2.934,2.934,0,0,1,1.6.4,5.8,5.8,0,0,1,1.2,1l.2-1.2h1.4V299a3.609,3.609,0,0,1-1.1,2.8,4.139,4.139,0,0,1-3.1,1,7.719,7.719,0,0,1-1.5-.2,5.784,5.784,0,0,1-1.4-.5l.3-1.3a3.373,3.373,0,0,0,1.2.4,6.754,6.754,0,0,0,1.4.2,2.294,2.294,0,0,0,1.8-.6,2.445,2.445,0,0,0,.6-1.8v-1.1a3.126,3.126,0,0,1-1.1.9,3.339,3.339,0,0,1-1.5.3,2.992,2.992,0,0,1-2.7-1.3,5.623,5.623,0,0,1-1-3.3Zm1.7.2a3.921,3.921,0,0,0,.6,2.3,2.019,2.019,0,0,0,1.8.9,1.844,1.844,0,0,0,1.3-.4c.4-.2.6-.6.9-1v-4.4a2.538,2.538,0,0,0-2.2-1.4,1.9,1.9,0,0,0-1.8,1,5.4,5.4,0,0,0-.6,2.7Z" fill="#0084d1"/>
      <path id="Path_111" data-name="Path 111" d="M487.4,294a5.625,5.625,0,0,1,1.1-3.5,4.132,4.132,0,0,1,6.2,0,5.625,5.625,0,0,1,1.1,3.5v.2a5.625,5.625,0,0,1-1.1,3.5,4.132,4.132,0,0,1-6.2,0,5.074,5.074,0,0,1-1.1-3.5Zm1.8.2a4.871,4.871,0,0,0,.6,2.5,2.305,2.305,0,0,0,3.8,0,4.871,4.871,0,0,0,.6-2.5V294a4.871,4.871,0,0,0-.6-2.5,2.305,2.305,0,0,0-3.8,0,4.871,4.871,0,0,0-.6,2.5Z" fill="#0084d1"/>
      <path id="Path_112" data-name="Path 112" d="M497.7,294a5.625,5.625,0,0,1,1.1-3.5,4.132,4.132,0,0,1,6.2,0,5.625,5.625,0,0,1,1.1,3.5v.2a5.625,5.625,0,0,1-1.1,3.5,4.132,4.132,0,0,1-6.2,0,5.074,5.074,0,0,1-1.1-3.5Zm1.7.2a4.871,4.871,0,0,0,.6,2.5,2.3,2.3,0,0,0,3.8,0,4.871,4.871,0,0,0,.6-2.5V294a4.871,4.871,0,0,0-.6-2.5,2.3,2.3,0,0,0-3.8,0,4.871,4.871,0,0,0-.6,2.5Z" fill="#0084d1"/>
      <path id="Path_113" data-name="Path 113" d="M507.9,294.3a6.006,6.006,0,0,1,1-3.7,3.471,3.471,0,0,1,4.2-1.1,3.126,3.126,0,0,1,1.1.9v-5.2h1.7v13.7h-1.3l-.3-1.2a2.335,2.335,0,0,1-1.2,1,4.193,4.193,0,0,1-1.6.4,2.992,2.992,0,0,1-2.7-1.3,5.623,5.623,0,0,1-1-3.3v-.2Zm1.7.2a3.92,3.92,0,0,0,.6,2.3,2.274,2.274,0,0,0,3.1.5,4.3,4.3,0,0,0,.9-1v-4.4a1.962,1.962,0,0,0-.9-.9,2.768,2.768,0,0,0-1.3-.3,1.9,1.9,0,0,0-1.8,1,5.545,5.545,0,0,0-.6,2.8Z" fill="#0084d1"/>
      <path id="Path_114" data-name="Path 114" d="M520,298.4l-1.3,2.7h-1l.6-2.8v-1.4H520Z" fill="#0084d1"/>
      <path id="Path_115" data-name="Path 115" d="M534.7,294.5a4.826,4.826,0,0,1-1,3.3,3.515,3.515,0,0,1-2.7,1.3,2.726,2.726,0,0,1-1.6-.4,2.545,2.545,0,0,1-1.2-1.1l-.3,1.3h-1.3V285.2h1.7v5.3a5.24,5.24,0,0,1,1.1-1,2.714,2.714,0,0,1,1.6-.3,3.067,3.067,0,0,1,2.7,1.4,6.75,6.75,0,0,1,1,3.7Zm-1.8-.2a5.4,5.4,0,0,0-.6-2.7,1.9,1.9,0,0,0-1.8-1,1.844,1.844,0,0,0-1.3.4,2.445,2.445,0,0,0-.9,1.1v4.1a2.445,2.445,0,0,0,.9,1.1,2.116,2.116,0,0,0,1.4.4,2.019,2.019,0,0,0,1.8-.9,3.921,3.921,0,0,0,.6-2.3v-.2Z" fill="#0084d1"/>
      <path id="Path_116" data-name="Path 116" d="M542.8,297.4a3.447,3.447,0,0,1-1.2,1.2,2.934,2.934,0,0,1-1.6.4,2.965,2.965,0,0,1-2.4-1,4.59,4.59,0,0,1-.9-3.1v-5.6h1.7v5.6a3.694,3.694,0,0,0,.4,2.1,1.678,1.678,0,0,0,1.4.6,2.41,2.41,0,0,0,1.5-.4,2.012,2.012,0,0,0,.9-1.1v-6.9h1.7v9.5h-1.6Z" fill="#0084d1"/>
      <path id="Path_117" data-name="Path 117" d="M549.4,287.1v2.3h1.8v1.3h-1.8v5.8c0,.4.1.8.3.9a.908.908,0,0,0,.7.3h.3c.1,0,.2-.1.3-.1l.2,1.2a1.628,1.628,0,0,1-.6.3,1.952,1.952,0,0,1-.7.1,2.352,2.352,0,0,1-1.7-.6,2.814,2.814,0,0,1-.6-2v-5.8h-1.5v-1.3h1.5v-2.3l1.8-.1Z" fill="#0084d1"/>
      <path id="Path_118" data-name="Path 118" d="M559.7,298.9H558V286.1h1.7Z" fill="#0084d1"/>
    </g>
    <g id="Group_21" data-name="Group 21" style="isolation: isolate">
      <path id="Path_119" data-name="Path 119" d="M446.5,321.9v-8.2H445v-1.3h1.5v-1.2a3.649,3.649,0,0,1,.8-2.4,2.732,2.732,0,0,1,2.2-.8h.6c.2,0,.4.1.7.1l-.2,1.3a.756.756,0,0,1-.4-.1c-.2-.1-.3,0-.5,0a1.29,1.29,0,0,0-1.1.5,2.226,2.226,0,0,0-.4,1.3v1.2h1.7v1.3h-1.7v8.2h-1.7Z" fill="#0084d1"/>
      <path id="Path_120" data-name="Path 120" d="M451.3,317a5.625,5.625,0,0,1,1.1-3.5,4.132,4.132,0,0,1,6.2,0,5.625,5.625,0,0,1,1.1,3.5v.2a5.625,5.625,0,0,1-1.1,3.5,4.132,4.132,0,0,1-6.2,0,5.074,5.074,0,0,1-1.1-3.5Zm1.8.2a4.871,4.871,0,0,0,.6,2.5,2.3,2.3,0,0,0,3.8,0,4.871,4.871,0,0,0,.6-2.5V317a4.871,4.871,0,0,0-.6-2.5,2.3,2.3,0,0,0-3.8,0,4.871,4.871,0,0,0-.6,2.5Z" fill="#0084d1"/>
      <path id="Path_121" data-name="Path 121" d="M461.6,317a5.625,5.625,0,0,1,1.1-3.5,4.132,4.132,0,0,1,6.2,0A5.625,5.625,0,0,1,470,317v.2a5.625,5.625,0,0,1-1.1,3.5,4.132,4.132,0,0,1-6.2,0,5.074,5.074,0,0,1-1.1-3.5Zm1.7.2a4.871,4.871,0,0,0,.6,2.5,2.305,2.305,0,0,0,3.8,0,4.871,4.871,0,0,0,.6-2.5V317a4.871,4.871,0,0,0-.6-2.5,2.305,2.305,0,0,0-3.8,0,4.871,4.871,0,0,0-.6,2.5Z" fill="#0084d1"/>
      <path id="Path_122" data-name="Path 122" d="M474.1,321.9h-1.7V308.2h1.7Z" fill="#0084d1"/>
      <path id="Path_123" data-name="Path 123" d="M480.7,322a3.944,3.944,0,0,1-3.2-1.3,4.813,4.813,0,0,1-1.1-3.4v-.4a4.871,4.871,0,0,1,1.2-3.4,3.742,3.742,0,0,1,2.9-1.3,3.561,3.561,0,0,1,2.9,1.2,5.089,5.089,0,0,1,1,3.2v.9h-6.1a3.921,3.921,0,0,0,.6,2.3,2.2,2.2,0,0,0,1.9.9,3.339,3.339,0,0,0,1.5-.3,4.129,4.129,0,0,0,1.1-.7l.7,1.1a4.11,4.11,0,0,1-1.3.8A5.222,5.222,0,0,1,480.7,322Zm-.3-8.5a1.8,1.8,0,0,0-1.5.7,3.594,3.594,0,0,0-.7,1.8h4.3v-.1a2.86,2.86,0,0,0-.5-1.7A2.015,2.015,0,0,0,480.4,313.5Z" fill="#0084d1"/>
      <path id="Path_124" data-name="Path 124" d="M485.7,317.3a6.006,6.006,0,0,1,1-3.7,3.471,3.471,0,0,1,4.2-1.1,3.126,3.126,0,0,1,1.1.9v-5.2h1.7v13.7h-1.3l-.3-1.2a2.335,2.335,0,0,1-1.2,1,4.193,4.193,0,0,1-1.6.4,2.992,2.992,0,0,1-2.7-1.3,5.622,5.622,0,0,1-1-3.3l.1-.2Zm1.8.2a3.921,3.921,0,0,0,.6,2.3,2.274,2.274,0,0,0,3.1.5,4.3,4.3,0,0,0,.9-1v-4.4a1.962,1.962,0,0,0-.9-.9,2.768,2.768,0,0,0-1.3-.3,1.9,1.9,0,0,0-1.8,1,5.545,5.545,0,0,0-.6,2.8Z" fill="#0084d1"/>
      <path id="Path_125" data-name="Path 125" d="M506.7,321.9a2.2,2.2,0,0,1-.1-.8c0-.2-.1-.4-.1-.7a2.85,2.85,0,0,1-1.3,1.1,3.448,3.448,0,0,1-4-.3,2.865,2.865,0,0,1-.8-2.1,2.476,2.476,0,0,1,1.1-2.1,5.1,5.1,0,0,1,3-.8h1.9v-.9a1.727,1.727,0,0,0-.5-1.3,1.978,1.978,0,0,0-1.4-.5,2.116,2.116,0,0,0-1.4.4,1.108,1.108,0,0,0-.5,1H501v-.1a2.418,2.418,0,0,1,1-1.9,4,4,0,0,1,2.7-.9,4.237,4.237,0,0,1,2.6.8,2.719,2.719,0,0,1,1,2.4v4.6a3.4,3.4,0,0,0,.1,1c.1.3.1.6.2.9h-1.9v.2Zm-2.9-1.3a3.371,3.371,0,0,0,1.7-.5,2.591,2.591,0,0,0,1-1.1v-1.5h-1.9a2.86,2.86,0,0,0-1.7.5,1.563,1.563,0,0,0-.6,1.2,1.159,1.159,0,0,0,.4,1A1.82,1.82,0,0,0,503.8,320.6Z" fill="#0084d1"/>
      <path id="Path_126" data-name="Path 126" d="M515.2,313.9l-.9-.1a2.375,2.375,0,0,0-1.2.3,1.272,1.272,0,0,0-.7.9v6.8h-1.7v-9.5h1.5l.2,1.4a4,4,0,0,1,1-1.2,2.3,2.3,0,0,1,1.4-.4h.4a.367.367,0,0,1,.3.1Z" fill="#0084d1"/>
      <path id="Path_127" data-name="Path 127" d="M516.5,317a5.625,5.625,0,0,1,1.1-3.5,4.132,4.132,0,0,1,6.2,0,5.074,5.074,0,0,1,1.1,3.5v.2a5.625,5.625,0,0,1-1.1,3.5,4.132,4.132,0,0,1-6.2,0,5.074,5.074,0,0,1-1.1-3.5Zm1.7.2a4.872,4.872,0,0,0,.6,2.5,2.3,2.3,0,0,0,3.8,0,4.871,4.871,0,0,0,.6-2.5V317a4.871,4.871,0,0,0-.6-2.5,2.3,2.3,0,0,0-3.8,0,4.872,4.872,0,0,0-.6,2.5Z" fill="#0084d1"/>
      <path id="Path_128" data-name="Path 128" d="M533.1,320.4a3.447,3.447,0,0,1-1.2,1.2,2.935,2.935,0,0,1-1.6.4,2.964,2.964,0,0,1-2.4-1,4.589,4.589,0,0,1-.9-3.1v-5.6h1.7v5.6a3.694,3.694,0,0,0,.4,2.1,1.678,1.678,0,0,0,1.4.6,2.41,2.41,0,0,0,1.5-.4,2.012,2.012,0,0,0,.9-1.1v-6.9h1.7v9.5H533Z" fill="#0084d1"/>
      <path id="Path_129" data-name="Path 129" d="M538.9,312.3l.1,1.4a3.447,3.447,0,0,1,1.2-1.2,2.934,2.934,0,0,1,1.6-.4,3.244,3.244,0,0,1,2.4.9,3.761,3.761,0,0,1,.8,2.8v6h-1.7v-6a2.969,2.969,0,0,0-.5-1.8,1.721,1.721,0,0,0-1.5-.5,3.194,3.194,0,0,0-1.4.3,1.962,1.962,0,0,0-.9.9v7.1h-1.7v-9.5Z" fill="#0084d1"/>
      <path id="Path_130" data-name="Path 130" d="M547.2,317.3a6.006,6.006,0,0,1,1-3.7,3.471,3.471,0,0,1,4.2-1.1,3.126,3.126,0,0,1,1.1.9v-5.2h1.7v13.7h-1.3l-.3-1.2a2.335,2.335,0,0,1-1.2,1,4.193,4.193,0,0,1-1.6.4,2.992,2.992,0,0,1-2.7-1.3,5.623,5.623,0,0,1-1-3.3l.1-.2Zm1.7.2a3.92,3.92,0,0,0,.6,2.3,2.274,2.274,0,0,0,3.1.5,4.3,4.3,0,0,0,.9-1v-4.4a1.962,1.962,0,0,0-.9-.9,2.768,2.768,0,0,0-1.3-.3,1.9,1.9,0,0,0-1.8,1,5.545,5.545,0,0,0-.6,2.8Z" fill="#0084d1"/>
      <path id="Path_131" data-name="Path 131" d="M559.8,317.7H558v-8.6h1.7l.1,8.6Zm0,4.2H558v-1.8h1.7l.1,1.8Z" fill="#0084d1"/>
    </g>
    <g id="Group_23" data-name="Group 23">
      <g id="Group_22" data-name="Group 22" style="isolation: isolate">
        <path id="Path_132" data-name="Path 132" d="M519.1,248.7H505.4v-1.4l7.4-8.6a23.28,23.28,0,0,0,2.7-3.8,6.688,6.688,0,0,0,.8-2.9,4.591,4.591,0,0,0-1.1-3.2,4.163,4.163,0,0,0-3.3-1.2,4.975,4.975,0,0,0-3.7,1.4,5.154,5.154,0,0,0-1.3,3.6h-1.7v-.1a5.96,5.96,0,0,1,1.8-4.7,7.473,7.473,0,0,1,9.6-.3,5.873,5.873,0,0,1,1.7,4.4,7.17,7.17,0,0,1-1.1,3.6,35.863,35.863,0,0,1-3.2,4.4l-6.1,7.1v.1h11.3v1.6Z" fill="#0084d1"/>
        <path id="Path_133" data-name="Path 133" d="M533.8,241.5h3.5v1.6h-3.5v5.7H532v-5.7H521.7v-1l10.1-15.7h2Zm-9.9,0H532V228.7h-.1l-.8,1.7Z" fill="#0084d1"/>
        <path id="Path_134" data-name="Path 134" d="M539.8,230.6a4.79,4.79,0,0,1,1.2-3.3,4.588,4.588,0,0,1,6.4,0,4.79,4.79,0,0,1,1.2,3.3v1.2a4.79,4.79,0,0,1-1.2,3.3,4.01,4.01,0,0,1-3.1,1.3,4.08,4.08,0,0,1-3.2-1.3,4.79,4.79,0,0,1-1.2-3.3v-1.2Zm1.4,1.2a3.566,3.566,0,0,0,.8,2.3,2.717,2.717,0,0,0,2.2,1,2.393,2.393,0,0,0,2.1-1,3.691,3.691,0,0,0,.7-2.3v-1.2a3.566,3.566,0,0,0-.8-2.3,2.658,2.658,0,0,0-2.1-1,2.7,2.7,0,0,0-2.2,1,3.566,3.566,0,0,0-.8,2.3l.1,1.2Zm3.4,15.1-1.1-.7,11-17.6,1.1.7Zm6.5-3.7a4.79,4.79,0,0,1,1.2-3.3,4.589,4.589,0,0,1,6.4,0,4.79,4.79,0,0,1,1.2,3.3v1.2a4.79,4.79,0,0,1-1.2,3.3,4.588,4.588,0,0,1-6.4,0,4.79,4.79,0,0,1-1.2-3.3Zm1.5,1.2a3.566,3.566,0,0,0,.8,2.3,2.716,2.716,0,0,0,2.2,1,2.393,2.393,0,0,0,2.1-1,3.506,3.506,0,0,0,.7-2.3v-1.2a3.566,3.566,0,0,0-.8-2.3,2.9,2.9,0,0,0-4.2,0,3.566,3.566,0,0,0-.8,2.3v1.2Z" fill="#0084d1"/>
      </g>
    </g>
    <g id="Group_28" data-name="Group 28">
      <g id="Group_24" data-name="Group 24">
        <path id="Path_135" data-name="Path 135" d="M321.3,247.5a106.217,106.217,0,0,1-18.7,2.3c-24.6.5-48.5-8.5-67.8-23.5-2.4-1.8-4.7-3.8-7-5.8L300,146.2" fill="#0a99e0"/>
      </g>
      <g id="Group_25" data-name="Group 25">
        <path id="Path_136" data-name="Path 136" d="M403.8,145l-103.7,1.2,29.6-99.9c.7-1.4,15.5,5.2,17,5.9,20.3,10,36.2,27.9,46.1,48a104.586,104.586,0,0,1,10.7,39C403.6,140.4,404.1,145,403.8,145Z" fill="#006caa"/>
      </g>
      <g id="Group_26" data-name="Group 26">
        <path id="Path_137" data-name="Path 137" d="M299.8,147.2s-70.8,74.1-77.5,80.5A111.777,111.777,0,0,1,333,40.8C327.5,56.8,299.8,147.2,299.8,147.2Z" fill="#005484"/>
      </g>
      <g id="Group_27" data-name="Group 27">
        <path id="Path_138" data-name="Path 138" d="M403.8,145A103.9,103.9,0,0,1,331,244.9a106.276,106.276,0,0,1-23.1,4.6l-7.7-103.3" fill="#0084d1"/>
      </g>
    </g>
    <g id="Group_29" data-name="Group 29" opacity="0.4" style="isolation: isolate">
      <circle id="Ellipse_7" data-name="Ellipse 7" cx="51.2" cy="51.2" r="51.2" transform="translate(247.6 94.3)" fill="#fff"/>
    </g>
    <g id="Group_30" data-name="Group 30">
      <circle id="Ellipse_8" data-name="Ellipse 8" cx="44" cy="44" r="44" transform="translate(254.8 101.5)" fill="#fff"/>
    </g>
    <g id="Group_31" data-name="Group 31" style="isolation: isolate">
      <path id="Path_139" data-name="Path 139" d="M280.4,151.6h-1V140.3c0-1,0-2.1.1-3.2l-.3.3c-.1.1-1.2,1-3.3,2.6l-.6-.8,4.2-3.1h.9v15.5Z"/>
      <path id="Path_140" data-name="Path 140" d="M296.7,143.8a11.73,11.73,0,0,1-1.2,6,4.207,4.207,0,0,1-3.8,2,4.271,4.271,0,0,1-3.7-2c-.9-1.3-1.3-3.3-1.3-6a11.73,11.73,0,0,1,1.2-6,4.422,4.422,0,0,1,7.4,0C296.3,139.2,296.7,141.2,296.7,143.8Zm-8.8,0a11.742,11.742,0,0,0,.9,5.3,3.135,3.135,0,0,0,2.9,1.7,3.057,3.057,0,0,0,2.9-1.8,12.035,12.035,0,0,0,.9-5.3,11.84,11.84,0,0,0-.9-5.2,3.236,3.236,0,0,0-5.8,0A12.336,12.336,0,0,0,287.9,143.8Z"/>
      <path id="Path_141" data-name="Path 141" d="M309.1,143.8a11.73,11.73,0,0,1-1.2,6,4.207,4.207,0,0,1-3.8,2,4.271,4.271,0,0,1-3.7-2c-.9-1.3-1.3-3.3-1.3-6a11.73,11.73,0,0,1,1.2-6,4.423,4.423,0,0,1,7.4,0A11.78,11.78,0,0,1,309.1,143.8Zm-8.8,0a11.742,11.742,0,0,0,.9,5.3,3.135,3.135,0,0,0,2.9,1.7A3.057,3.057,0,0,0,307,149a12.035,12.035,0,0,0,.9-5.3,11.84,11.84,0,0,0-.9-5.2,3.236,3.236,0,0,0-5.8,0A12.336,12.336,0,0,0,300.3,143.8Z"/>
      <path id="Path_142" data-name="Path 142" d="M317.6,140.7a6.852,6.852,0,0,1-.8,3.6,2.561,2.561,0,0,1-2.3,1.2,2.406,2.406,0,0,1-2.2-1.3,7.381,7.381,0,0,1-.8-3.6,6.852,6.852,0,0,1,.8-3.6,2.509,2.509,0,0,1,2.2-1.2,2.556,2.556,0,0,1,2.3,1.3A6.415,6.415,0,0,1,317.6,140.7Zm-5,0a7.751,7.751,0,0,0,.5,3,1.5,1.5,0,0,0,1.5,1c1.4,0,2-1.3,2-4a6.86,6.86,0,0,0-.5-2.9,1.583,1.583,0,0,0-1.5-1,1.5,1.5,0,0,0-1.5,1A5.586,5.586,0,0,0,312.6,140.7Zm11.3-4.6-8.6,15.5h-1l8.6-15.5Zm2.8,10.8a6.852,6.852,0,0,1-.8,3.6,2.561,2.561,0,0,1-2.3,1.2,2.308,2.308,0,0,1-2.2-1.3,7.381,7.381,0,0,1-.8-3.6,6.852,6.852,0,0,1,.8-3.6,2.742,2.742,0,0,1,4.6.1A8.84,8.84,0,0,1,326.7,146.9Zm-5.1,0a6.86,6.86,0,0,0,.5,2.9,1.5,1.5,0,0,0,1.5,1c1.4,0,2-1.3,2-3.9s-.7-3.9-2-3.9a1.5,1.5,0,0,0-1.5,1A6.86,6.86,0,0,0,321.6,146.9Z"/>
    </g>
    <g id="Group_32" data-name="Group 32">
      <path id="Path_143" data-name="Path 143" d="M373.6,96.7l-.8-.8,32.3-31.7H591.3v1H405.5Z" fill="#0f6d96"/>
    </g>
    <g id="Group_33" data-name="Group 33">
      <path id="Path_144" data-name="Path 144" d="M215.5,81.9,183.4,50.5H17.6v-1H183.8l32.3,31.6Z" fill="#005484"/>
    </g>
    <g id="Group_34" data-name="Group 34">
      <path id="Path_145" data-name="Path 145" d="M571.4,257.6H385.2l-32.4-31.7.8-.8,32,31.5H571.4Z" fill="#0084d1"/>
    </g>
    <g id="Group_35" data-name="Group 35">
      <path id="Path_146" data-name="Path 146" d="M241.3,265.8H29.1v-1H240.9l31.9-31.5.8.8Z" fill="#0a99e0"/>
    </g>
    <g id="Group_36" data-name="Group 36">
      <circle id="Ellipse_9" data-name="Ellipse 9" cx="4.5" cy="4.5" r="4.5" transform="translate(586.6 60.3)" fill="#0f6d96"/>
    </g>
    <g id="Group_37" data-name="Group 37">
      <circle id="Ellipse_10" data-name="Ellipse 10" cx="4.5" cy="4.5" r="4.5" transform="translate(566.9 252.6)" fill="#0084d1"/>
    </g>
    <g id="Group_38" data-name="Group 38">
      <circle id="Ellipse_11" data-name="Ellipse 11" cx="4.5" cy="4.5" r="4.5" transform="translate(24.6 260.8)" fill="#0a99e0"/>
    </g>
    <g id="Group_39" data-name="Group 39">
      <circle id="Ellipse_12" data-name="Ellipse 12" cx="4.5" cy="4.5" r="4.5" transform="translate(13.1 45.5)" fill="#005484"/>
    </g>
  </g>
</svg>
