<?xml version="1.0" encoding="utf-8"?>
<!-- Generator: Adobe Illustrator 22.0.1, SVG Export Plug-In . SVG Version: 6.00 Build 0)  -->
<svg version="1.1" id="Layer_1" xmlns="http://www.w3.org/2000/svg" xmlns:xlink="http://www.w3.org/1999/xlink" x="0px" y="0px"
	 viewBox="0 0 1680 1050" style="enable-background:new 0 0 1680 1050;" xml:space="preserve">
<style type="text/css">
	.st0{clip-path:url(#SVGID_2_);fill:#F4F4F4;}
	.st1{fill:#175480;}
	.st2{opacity:0;}
</style>
<title>Form-bg</title>
<g>
	<g>
		<defs>
			<rect id="SVGID_1_" y="-377" width="1680" height="1727"/>
		</defs>
		<clipPath id="SVGID_2_">
			<use xlink:href="#SVGID_1_"  style="overflow:visible;"/>
		</clipPath>
		<path id="path41_fill" class="st0" d="M662.4,652.7c-43.1-44.7-26.4-109,22.5-199.9l380.4-746.6c61.4-61.4,181-71.5,229.9-22.5
			l895.2,745.2c49,49,38.9,138.5-22.5,199.9l-630.3,646.6c-61.4,61.4-150.9,71.5-199.9,22.5L662.4,652.7z"/>
	</g>
</g>
<g>
	<path class="st1" d="M1703.4,127.4l66,53.5c4,3.3,4.7,9.2,1.4,13.3l-68.3,84.2c-3.3,4.1-2.7,10,1.4,13.3l84.2,68.3
		c4,3.3,4.7,9.2,1.4,13.3l-53.5,66c-3.3,4-9.2,4.7-13.3,1.4l0,0L1557.9,307c-4-3.3-4.7-9.2-1.4-13.3l0,0l133.7-164.9
		C1693.4,124.7,1699.3,124.1,1703.4,127.4L1703.4,127.4z"/>
</g>
<path class="st1" d="M116,954.5V829.6c0-20.2-16.4-36.6-36.6-36.6H-48.9L116,954.5z"/>
<g id="HxPmWd.tif" class="st2">
	
		<image style="overflow:visible;enable-background:new    ;" width="2873" height="1797" id="Layer_0_1_" xlink:href="https://www.zohoschools.com/files/2A57C92EF6DDD067.png"  transform="matrix(0.5847 0 0 0.5847 1978.1306 -466.4839)">
	</image>
</g>
</svg>
