<svg xmlns="http://www.w3.org/2000/svg" viewBox="0 0 445.93 85.99"><defs><style>.cls-1{fill:#d31f2a;}</style></defs><g id="Layer_4" data-name="Layer 4"><path class="cls-1" d="M70.93,27.39H60.5a19.94,19.94,0,0,0-15,6.85,19.94,19.94,0,0,0-15-6.85H20a20,20,0,0,0-20,20V83a3,3,0,0,0,3,3H7a3,3,0,0,0,3-3V47.39a10,10,0,0,1,10-10H30.43a10,10,0,0,1,10,10V83a3,3,0,0,0,3,3H47.5a3,3,0,0,0,3-3V47.39a10,10,0,0,1,10-10H70.93a10,10,0,0,1,10,10V83a3,3,0,0,0,3,3h4a3,3,0,0,0,3-3V47.39A20,20,0,0,0,70.93,27.39Z"/><path class="cls-1" d="M240.08,86H229.64a20,20,0,0,1-20-20V45.39a3,3,0,0,1,3-3h4a3,3,0,0,1,3,3V66a10,10,0,0,0,10,10h10.44a10,10,0,0,0,10-10V30.39a3,3,0,0,1,3-3h4a3,3,0,0,1,3,3V66A20,20,0,0,1,240.08,86Z"/><path class="cls-1" d="M273.5,86h-4a3,3,0,0,1-3-3V47.39a20,20,0,0,1,20-20h10.43a20,20,0,0,1,20,20v4.4a20,20,0,0,1-20,20H279.5a3,3,0,0,0-3,3V83A3,3,0,0,1,273.5,86Zm6-24.2h17.43a10,10,0,0,0,10-10v-4.4a10,10,0,0,0-10-10H286.5a10,10,0,0,0-10,10v11.4A3,3,0,0,0,279.5,61.79Z"/><path class="cls-1" d="M127.43,27.39H117a20,20,0,0,0-20,20V83a3,3,0,0,0,3,3h4a3,3,0,0,0,3-3v-8.2a3,3,0,0,1,3-3h24.43a3,3,0,0,1,3,3V83a3,3,0,0,0,3,3h4a3,3,0,0,0,3-3V47.39A20,20,0,0,0,127.43,27.39ZM107,58.79V47.39a10,10,0,0,1,10-10h10.43a10,10,0,0,1,10,10v11.4a3,3,0,0,1-3,3H110A3,3,0,0,1,107,58.79Z"/><path class="cls-1" d="M353.43,27.39H343a20,20,0,0,0-20,20V83a3,3,0,0,0,3,3h4a3,3,0,0,0,3-3v-8.2a3,3,0,0,1,3-3h24.43a3,3,0,0,1,3,3V83a3,3,0,0,0,3,3h4a3,3,0,0,0,3-3V47.39A20,20,0,0,0,353.43,27.39ZM333,58.79V47.39a10,10,0,0,1,10-10h10.43a10,10,0,0,1,10,10v11.4a3,3,0,0,1-3,3H336A3,3,0,0,1,333,58.79Z"/><path class="cls-1" d="M409.93,86H382.5a3,3,0,0,1-3-3V30.39a3,3,0,0,1,3-3h27.43a20,20,0,0,1,20,20V66A20,20,0,0,1,409.93,86ZM391.5,76h18.43a10,10,0,0,0,10-10V47.39a10,10,0,0,0-10-10H391.5a2,2,0,0,0-2,2V74A2,2,0,0,0,391.5,76Z"/><rect class="cls-1" x="435.93" y="27.39" width="10" height="58.6" rx="3"/><circle class="cls-1" cx="255.08" cy="11.27" r="11.27"/><circle class="cls-1" cx="214.6" cy="31.45" r="5.84"/><path class="cls-1" d="M198.21,65.77a19.9,19.9,0,0,0,5.72-14v-4.4a20,20,0,0,0-20-20H173.5a20,20,0,0,0-20,20V83a3,3,0,0,0,3,3h4a3,3,0,0,0,3-3v-8.2a3,3,0,0,1,3-3h19.79a10,10,0,0,1,10,10V83a3,3,0,0,0,3,3h4a3,3,0,0,0,3-3v-1.2A20,20,0,0,0,198.21,65.77Zm-18.79-4H166.5a3,3,0,0,1-3-3V47.39a10,10,0,0,1,10-10h10.43a10,10,0,0,1,10,10v4.4a10,10,0,0,1-10,10Z"/></g></svg>