<svg id="Layer_1" data-name="Layer 1" xmlns="http://www.w3.org/2000/svg" viewBox="0 0 60 60"><defs><style>.cls-1{fill:none;stroke:#175480;stroke-linecap:round;stroke-linejoin:round;stroke-width:0.95px;}.cls-2{fill:#b2dee7;}</style></defs><title>ZU-Icons</title><path class="cls-1" d="M43.78,29.16a2.87,2.87,0,0,1,.27,1.12v.39a1.2,1.2,0,0,1-1.22,1.23H41.71a2,2,0,0,0-1.89,1.89h0a1.43,1.43,0,0,0,1.45,1.45h2.78a2.5,2.5,0,0,1,2.51,2.51h0a2.15,2.15,0,0,1-2.12,2.12H10.09A1.06,1.06,0,0,1,9,38.81V15.33a2.73,2.73,0,0,1,2.73-2.73H49.63a2.73,2.73,0,0,1,2.73,2.73v28H59s-.89,4-3.12,4.07H4s-2.9-1.17-3-3.74H46.67"/><path class="cls-2" d="M28.66,21.91H17.28c-.39,0-.78.23-.78.56h0c0,.28.34.56.78.56H28.66c.39,0,.78-.22.78-.56h0A.86.86,0,0,0,28.66,21.91Zm0,3H16.84c-.39,0-.73.22-.73.5s.34.5.73.5H28.66c.39,0,.73-.22.73-.5A.65.65,0,0,0,28.66,24.93Zm0,3H16.84c-.39,0-.73.22-.73.5s.34.5.73.5H28.66c.39,0,.73-.22.73-.5A.65.65,0,0,0,28.66,27.94Z"/><path class="cls-1" d="M36.38,20.7a4.72,4.72,0,0,1,4-1.85c2.12,0,3.7,1.07,3.7,3.25v7.79L44,28.77c-1,1.1-2.81,1.39-4.33,1.39a3.6,3.6,0,1,1,0-7.19,4.82,4.82,0,0,1,2.93.88"/></svg>