<svg id="Layer_1" data-name="Layer 1" xmlns="http://www.w3.org/2000/svg" viewBox="0 0 60 60"><defs><style>.cls-1,.cls-2,.cls-3{fill:none;stroke-linecap:round;}.cls-1,.cls-2{stroke:#175480;}.cls-1{stroke-linejoin:round;stroke-width:1.08px;}.cls-2,.cls-3{stroke-miterlimit:10;}.cls-2{stroke-width:0.95px;}.cls-3{stroke:#b2dee7;stroke-width:1.36px;}</style></defs><title>ZU-Icons</title><path class="cls-1" d="M27.2,44.56c-6.68-3.75-5.4-10.68-5-12a7.77,7.77,0,0,1,9.28-5c4.39,1.08,6.55,3.69,7.19,5.6s-.45,3.75-.38,4.2a14.86,14.86,0,0,0,1.65,2.54c.26.89-1.14,1.15-1.14,1.15,0,4.45-1.28,4.7-1.28,4.7l-3.43.13c-1.53.06-1.14,4.39-1.14,4.39L48.7,56.77,43.8,37.44l15.2-14H38.84L29.94,2.91,21.29,23.45,1,24l16.15,13.8L11.62,57.09l9.09-4.2"/><path class="cls-2" d="M33.63,31.84s-.64,4.07-2.74,5.73a2.48,2.48,0,0,0-1.72-1.08,1.28,1.28,0,0,0-1.27.44,2.56,2.56,0,0,0,.38,3.12,9.06,9.06,0,0,0,2.17,1.33"/><line class="cls-3" x1="16.2" y1="16.96" x2="11.3" y2="12.7"/><line class="cls-3" x1="43.8" y1="17.47" x2="48.82" y2="13.15"/><line class="cls-3" x1="50.8" y1="40.05" x2="57.09" y2="42.02"/><line class="cls-3" x1="4.24" y1="42.66" x2="10.54" y2="40.56"/></svg>