<svg id="Layer_1" data-name="Layer 1" xmlns="http://www.w3.org/2000/svg" viewBox="0 0 60 60"><defs><style>.cls-1{fill:none;stroke:#175480;stroke-linecap:round;stroke-linejoin:round;stroke-width:1.03px;}.cls-2{fill:#b2dee7;}</style></defs><title>ZU-Icons</title><circle class="cls-1" cx="10.22" cy="41.96" r="1.17"/><path class="cls-1" d="M17.81,41.35m6.34-15.14a13.64,13.64,0,0,0-5.69,1.18l-5.75,2.54a2.89,2.89,0,0,0-3.58-1.05L1.7,32.14A1.19,1.19,0,0,0,1,33.21V53.14a1.16,1.16,0,0,0,.56,1,1.13,1.13,0,0,0,.61.17,1.21,1.21,0,0,0,.53-.12l14.42-7.28a2.9,2.9,0,0,0,1.5-1.6,2.85,2.85,0,0,0,.1-1.8l.1,0a8.74,8.74,0,0,1,7.43.17l5.54,2.75a11.09,11.09,0,0,0,9.42.22l15.12-6.68a4.48,4.48,0,1,0-3.61-8.19h0l-7.39,3.41M28.44,36.37l8.61,2.91a4.36,4.36,0,0,0,1.37.22,4.31,4.31,0,0,0,1.5-8.35L28.78,27.06a14,14,0,0,0-2.28-.63V20m-15.42,12h0L16.43,44a.57.57,0,0,1-.29.74l-.06,0L3.35,51.23V46.48l3.3-1.62a1.18,1.18,0,0,0-1-2.11L1.36,44.94M10.07,31a.57.57,0,0,1,.43,0"/><path class="cls-2" d="M36.41,13.4v.87h3.46a6.56,6.56,0,0,1,2.22.45A3.46,3.46,0,0,1,43.72,16H36.41v.86h7.68a3.45,3.45,0,0,1,.11.87,3.2,3.2,0,0,1-1,2.49,4.93,4.93,0,0,1-3.37,1H36.41v1.06L43,28.43l.59-.63-6.16-5.74h2.36a5.78,5.78,0,0,0,4-1.19,4,4,0,0,0,1.24-3.14,4.07,4.07,0,0,0-.09-.87h1.82V16H44.71a3.9,3.9,0,0,0-1.6-1.73h3.68V13.4H36.41Z"/><path class="cls-1" d="M50.65,29.82a14.14,14.14,0,1,0-24.13-10"/></svg>