<svg id="Layer_1" data-name="Layer 1" xmlns="http://www.w3.org/2000/svg" viewBox="0 0 60 60.51"><defs><style>.cls-1{fill:#fff;}.cls-2{fill:#db1f2a;}</style></defs><title>ZU-Logos-Icon</title><path class="cls-1" d="M28.48,8.4a2,2,0,0,0,0,2.85L38.87,21.7a2,2,0,0,1,0,2.84L28.62,34.79a2,2,0,0,0,0,2.85l6.78,6.78a2,2,0,0,0,2.85,0L60,22.64,36.88,0Z"/><path class="cls-1" d="M32,48.26,21.75,38.07a2,2,0,0,1,0-2.85L32,24.89A2,2,0,0,0,32,22L24.8,14.85a2,2,0,0,0-2.84,0L.55,36.24,23.64,59.82,32,51.09A2,2,0,0,0,32,48.26Z"/><path class="cls-2" d="M54.87,0h-18L60,22.64V5.13A5.13,5.13,0,0,0,54.87,0Z"/><path class="cls-2" d="M23.64,59.82.55,36.24A30,30,0,0,0,23.64,59.82Z"/><path class="cls-2" d="M35.4,44.42l-6.78-6.78a2,2,0,0,1,0-2.85L38.87,24.54a2,2,0,0,0,0-2.84L28.48,11.25a2,2,0,0,1,0-2.85L36.88,0H5.13A5.13,5.13,0,0,0,0,5.13V30.51a30.09,30.09,0,0,0,.55,5.73L22,14.85a2,2,0,0,1,2.84,0L32,22a2,2,0,0,1,0,2.85L21.74,35.22a2,2,0,0,0,0,2.85L32,48.26a2,2,0,0,1,0,2.83l-8.4,8.73a29.65,29.65,0,0,0,6.36.69h0a30,30,0,0,0,30-30V22.64L38.25,44.42A2,2,0,0,1,35.4,44.42Z"/></svg>