<?xml version="1.0" encoding="utf-8"?>
<!-- Generator: Adobe Illustrator 23.0.2, SVG Export Plug-In . SVG Version: 6.00 Build 0)  -->
<svg version="1.1" id="Layer_1" xmlns="http://www.w3.org/2000/svg" xmlns:xlink="http://www.w3.org/1999/xlink" x="0px" y="0px"
	 viewBox="0 0 60 60.51" style="enable-background:new 0 0 60 60.51;" xml:space="preserve">
<style type="text/css">
	.st0{fill:#FFFFFF;}
	.st1{fill:#DB1F2A;}
	.st2{fill:#175480;}
</style>
<g>
	<path class="st1" d="M54.86,0H37.68l22.08,21.62V4.9C59.76,2.19,57.56,0,54.86,0z"/>
	<path class="st2" d="M36.27,42.42l-6.48-6.47c-0.75-0.75-0.75-1.97,0-2.72l9.79-9.79c0.75-0.75,0.75-1.97,0-2.72l-9.93-9.98
		c-0.75-0.75-0.75-1.97,0-2.72L37.68,0H7.35c-2.71,0-4.9,2.19-4.9,4.9v24.23c0,1.87,0.19,3.7,0.53,5.48l20.45-20.43
		c0.75-0.75,1.96-0.75,2.72,0l6.9,6.87c0.75,0.75,0.76,1.97,0.01,2.72l-9.83,9.86c-0.75,0.75-0.75,1.97,0.01,2.72l9.79,9.74
		c0.74,0.74,0.76,1.94,0.03,2.7l-8.02,8.34c1.96,0.42,3.99,0.65,6.08,0.65h0c15.82,0,28.65-12.83,28.65-28.65v-7.52l-20.77,20.8
		C38.24,43.17,37.02,43.17,36.27,42.42z"/>
	<g>
		<path class="st1" d="M13.31,60.51c-0.37,0-0.75-0.14-1.03-0.43c-0.57-0.57-0.57-1.49,0-2.06l5.41-5.41c0.57-0.57,1.49-0.57,2.06,0
			c0.57,0.57,0.57,1.49,0,2.06l-5.41,5.41C14.06,60.37,13.69,60.51,13.31,60.51z"/>
	</g>
	<g>
		<path class="st1" d="M4.4,57.46c-0.37,0-0.75-0.14-1.03-0.43c-0.57-0.57-0.57-1.49,0-2.06l5.41-5.41c0.57-0.57,1.49-0.57,2.06,0
			c0.57,0.57,0.57,1.49,0,2.06l-5.41,5.41C5.15,57.31,4.78,57.46,4.4,57.46z"/>
	</g>
	<g>
		<path class="st1" d="M1.7,48.19c-0.37,0-0.75-0.14-1.03-0.43c-0.57-0.57-0.57-1.49,0-2.06l5.41-5.41c0.57-0.57,1.49-0.57,2.06,0
			s0.57,1.49,0,2.06l-5.41,5.41C2.44,48.05,2.07,48.19,1.7,48.19z"/>
	</g>
</g>
</svg>
