<svg xmlns="http://www.w3.org/2000/svg" width="837" height="402.028" viewBox="0 0 837 402.028"><g transform="translate(142.936 -1285.145)"><path d="M-141.936,1642.421l75.779,43.751,458.874-264.937,112.94,65.206,187.407-108.2-75.777-43.75-112.156,64.754-112.941-65.207Z" fill="#fff"/><path d="M-141.936,1603.421l75.779,43.751,458.874-264.937,112.94,65.206,187.407-108.2-75.777-43.75-112.156,64.754-112.941-65.207Z" fill="#da1f2a" stroke="#073247" stroke-linecap="round" stroke-linejoin="round" stroke-width="2"/><path d="M-141.936,1642.421v-39l75.779,43.751v39Z" fill="#175480" stroke="#073247" stroke-linecap="round" stroke-linejoin="round" stroke-width="2"/><path d="M-66.157,1686.172l458.874-264.937v-39L-66.157,1647.172Z" fill="#efeeea" stroke="#073247" stroke-linecap="round" stroke-linejoin="round" stroke-width="2"/><path d="M505.657,1486.441v-39l-112.94-65.206v39Z" fill="#175480" stroke="#073247" stroke-linecap="round" stroke-linejoin="round" stroke-width="2"/><path d="M693.064,1378.242v-39l-187.407,108.2v39Z" fill="#efeeea" stroke="#073247" stroke-linecap="round" stroke-linejoin="round" stroke-width="2"/><circle cx="27.824" cy="27.824" r="27.824" transform="translate(189.563 1411.514)" fill="#efeeea" stroke="#073247" stroke-linecap="round" stroke-linejoin="round" stroke-width="2"/><circle cx="27.824" cy="27.824" r="27.824" transform="translate(623.524 1286.145)" fill="#175480" stroke="#073247" stroke-linecap="round" stroke-linejoin="round" stroke-width="2"/></g></svg>