<svg xmlns="http://www.w3.org/2000/svg" width="133.285" height="119.444" viewBox="0 0 133.285 119.444"><g transform="translate(-7819.135 -8689.427)"><g transform="translate(7208 6184.618)"><path d="M744.42,2566.787l-99.533,57.466-33.752-19.487,66.423-38.35-28-4.941,27.807-16.054,38.028,4.607Z"/><path d="M649.556,2548.642l28,4.941v12.833l-28-4.941Z" fill="#8c8c8c"/><path d="M744.42,2553.954l-99.533,57.465-33.752-19.487,66.423-38.349-28-4.941,27.807-16.054,38.028,4.606Z" fill="#fff"/><path d="M611.135,2591.932v12.834l33.752,19.487v-12.833Z" fill="#a0a0a0"/><path d="M744.42,2553.954v12.833l-99.533,57.465v-12.833Z" fill="#bcbcbc"/></g><line y1="39.089" transform="translate(7914.437 8689.427)" fill="none" stroke="#000" stroke-miterlimit="10" stroke-width="2"/><path d="M707.441,2504.809v12.727l13.235-6.363Z" transform="translate(7208 6184.618)" fill="#da1f2a"/></g></svg>