<svg xmlns="http://www.w3.org/2000/svg" xmlns:xlink="http://www.w3.org/1999/xlink" width="926.958" height="529.378" viewBox="0 0 926.958 529.378"><defs><clipPath id="a"><path d="M0,3552.684H686.958V3153.627l240-130.321H0Z" fill="none"/></clipPath></defs><g transform="translate(0 -3023.306)"><g clip-path="url(#a)"><path d="M731.544,3120.958l-604.971,349.28-152.3-87.932L428,3120.346l-456.907-263.8,151.243-87.32Z" fill="#efeeea" stroke="#073247" stroke-linecap="round" stroke-linejoin="round" stroke-width="2.537"/><path d="M-28.909,2799.395,428,3063.19v57.156l-456.907-263.8Z" fill="#efeeea" stroke="#073247" stroke-linecap="round" stroke-linejoin="round" stroke-width="2.537"/><path d="M731.544,3063.8l-604.971,349.28-152.3-87.932L428,3063.19l-456.907-263.8,151.243-87.32Z" fill="#da1f2a" stroke="#073247" stroke-linecap="round" stroke-linejoin="round" stroke-width="2"/><path d="M-25.73,3325.15v57.156l152.3,87.932v-57.156Z" fill="#175480" stroke="#073247" stroke-linecap="round" stroke-linejoin="round" stroke-width="2"/><path d="M731.544,3063.8v57.156l-604.971,349.28v-57.156Z" fill="#efeeea" stroke="#073247" stroke-linecap="round" stroke-linejoin="round" stroke-width="2"/></g><circle cx="27.824" cy="27.824" r="27.824" transform="translate(153.826 3087.152)" fill="#efeeea" stroke="#073247" stroke-linecap="round" stroke-linejoin="round" stroke-width="2"/><circle cx="20" cy="20" r="20" transform="translate(20.826 3047.152)" fill="#175480" stroke="#073247" stroke-linecap="round" stroke-linejoin="round" stroke-width="2"/></g></svg>