<svg xmlns="http://www.w3.org/2000/svg" xmlns:xlink="http://www.w3.org/1999/xlink" width="257.422" height="43.376" viewBox="0 0 257.422 43.376"><defs><clipPath id="a"><rect width="257.422" height="43.376" transform="translate(180.077 404.288)" fill="none"/></clipPath></defs><g transform="translate(-180.077 -404.288)"><g clip-path="url(#a)"><path d="M201.573,447.664h0a21.506,21.506,0,0,1-21.506-21.506V407.974a3.686,3.686,0,0,1,3.686-3.686h35.64a3.686,3.686,0,0,1,3.687,3.686v18.184a21.507,21.507,0,0,1-21.507,21.506Z" fill="#db202a"/></g><path d="M223.08,411.929,215.007,420l-8.073-8.073-13.489,13.489,5.417,5.417,8.073-8.073,8.073,8.073h0l8.073-8.073V411.929Z" fill="#fff"/><path d="M237.587,420.636v-1.485a.7.7,0,0,1,.137-.416l6.481-8.786h-5.918a.7.7,0,0,1-.7-.7v-1.225a.7.7,0,0,1,.7-.7h9.126a.7.7,0,0,1,.7.7v1.465a.7.7,0,0,1-.136.415l-6.482,8.807h6.065a.7.7,0,0,1,.7.7v1.225a.7.7,0,0,1-.7.7h-9.273a.7.7,0,0,1-.7-.7Z" fill="#145681"/><path d="M261.14,414.34c0-2.626-1.66-4.6-4.244-4.6-2.606,0-4.265,1.975-4.265,4.6,0,2.605,1.659,4.6,4.265,4.6,2.584,0,4.244-2,4.244-4.6Zm-11.577,0a7.323,7.323,0,1,1,7.333,7.249,7.042,7.042,0,0,1-7.333-7.249Z" fill="#145681"/><path d="M275.91,420.636v-5.2h-6.618v5.2a.7.7,0,0,1-.7.7h-1.583a.7.7,0,0,1-.7-.7V408.023a.7.7,0,0,1,.7-.7h1.583a.7.7,0,0,1,.7.7v4.8h6.618v-4.8a.7.7,0,0,1,.7-.7h1.6a.7.7,0,0,1,.7.7v12.613a.7.7,0,0,1-.7.7h-1.6a.7.7,0,0,1-.7-.7Z" fill="#145681"/><path d="M292.572,414.34c0-2.626-1.66-4.6-4.244-4.6-2.606,0-4.266,1.975-4.266,4.6,0,2.605,1.66,4.6,4.266,4.6,2.584,0,4.244-2,4.244-4.6Zm-11.578,0a7.323,7.323,0,1,1,7.334,7.249,7.042,7.042,0,0,1-7.334-7.249Z" fill="#145681"/><path d="M302.527,418.858l.826-1.175a.7.7,0,0,1,1.009-.145,6.117,6.117,0,0,0,3.9,1.4c1.659,0,2.437-.735,2.437-1.554,0-2.438-8.068-.736-8.068-6.01,0-2.332,2.017-4.265,5.315-4.265a8,8,0,0,1,4.927,1.506.7.7,0,0,1,.14.979l-.828,1.112a.7.7,0,0,1-.963.155,6.131,6.131,0,0,0-3.549-1.1c-1.26,0-1.975.546-1.975,1.386,0,2.207,8.047.715,8.047,5.946,0,2.564-1.849,4.5-5.609,4.5a8.3,8.3,0,0,1-5.484-1.787.7.7,0,0,1-.129-.944Z" fill="#145681"/><path d="M315.073,414.34a7.115,7.115,0,0,1,7.48-7.249,6.3,6.3,0,0,1,5.4,2.731.7.7,0,0,1-.26,1.037l-1.3.64a.7.7,0,0,1-.867-.206,3.765,3.765,0,0,0-2.976-1.554,4.605,4.605,0,0,0,0,9.2,3.765,3.765,0,0,0,2.979-1.558.694.694,0,0,1,.862-.207l1.292.625a.7.7,0,0,1,.265,1.039,6.324,6.324,0,0,1-5.4,2.749,7.127,7.127,0,0,1-7.48-7.249Z" fill="#145681"/><path d="M339.781,420.636v-5.2h-6.618v5.2a.7.7,0,0,1-.7.7H330.88a.7.7,0,0,1-.7-.7V408.023a.7.7,0,0,1,.7-.7h1.583a.7.7,0,0,1,.7.7v4.8h6.618v-4.8a.7.7,0,0,1,.7-.7h1.6a.7.7,0,0,1,.7.7v12.613a.7.7,0,0,1-.7.7h-1.6a.7.7,0,0,1-.7-.7Z" fill="#145681"/><path d="M356.443,414.34c0-2.626-1.66-4.6-4.244-4.6-2.606,0-4.266,1.975-4.266,4.6,0,2.605,1.66,4.6,4.266,4.6,2.584,0,4.244-2,4.244-4.6Zm-11.577,0a7.322,7.322,0,1,1,7.333,7.249,7.042,7.042,0,0,1-7.333-7.249Z" fill="#145681"/><path d="M372.516,414.34c0-2.626-1.66-4.6-4.244-4.6-2.606,0-4.266,1.975-4.266,4.6,0,2.605,1.66,4.6,4.266,4.6,2.584,0,4.244-2,4.244-4.6Zm-11.578,0a7.323,7.323,0,1,1,7.334,7.249,7.042,7.042,0,0,1-7.334-7.249Z" fill="#145681"/><path d="M377.558,420.636V408.023a.7.7,0,0,1,.7-.7h1.6a.7.7,0,0,1,.7.7V418.71h5.224a.7.7,0,0,1,.7.7v1.225a.7.7,0,0,1-.7.7h-7.528a.7.7,0,0,1-.7-.7Z" fill="#145681"/><path d="M393.9,420.636V408.023a.7.7,0,0,1,.7-.7h8.516a.7.7,0,0,1,.7.7v1.225a.7.7,0,0,1-.7.7h-6.233v2.941h6.086a.7.7,0,0,1,.7.7v1.225a.7.7,0,0,1-.7.7h-6.086v5.119a.7.7,0,0,1-.7.7H394.6a.7.7,0,0,1-.7-.7Z" fill="#145681"/><path d="M416.8,414.34c0-2.626-1.66-4.6-4.244-4.6-2.606,0-4.265,1.975-4.265,4.6,0,2.605,1.659,4.6,4.265,4.6,2.584,0,4.244-2,4.244-4.6Zm-11.577,0a7.323,7.323,0,1,1,7.333,7.249,7.042,7.042,0,0,1-7.333-7.249Z" fill="#145681"/><path d="M430.189,411.819a1.892,1.892,0,0,0-2.08-1.87h-3.152v3.782h3.152a1.9,1.9,0,0,0,2.08-1.912Zm-.494,9.156-2.553-4.618h-2.185v4.279a.7.7,0,0,1-.7.7h-1.583a.7.7,0,0,1-.7-.7V408.023a.7.7,0,0,1,.7-.7h5.855a4.382,4.382,0,0,1,4.727,4.518,4.054,4.054,0,0,1-3.088,4.16l2.544,4.278a.7.7,0,0,1-.6,1.059h-1.8a.7.7,0,0,1-.613-.362Z" fill="#145681"/><path d="M237.419,435.35c0-4.433,3.362-7.248,7.48-7.248a6.512,6.512,0,0,1,5.295,2.455.7.7,0,0,1-.209,1.054l-1.241.678a.7.7,0,0,1-.865-.156,3.982,3.982,0,0,0-2.98-1.384,4.606,4.606,0,0,0,0,9.2,4.658,4.658,0,0,0,2.962-1.072V437.2h-3a.7.7,0,0,1-.7-.7v-1.2a.7.7,0,0,1,.7-.7h5.28a.7.7,0,0,1,.7.7v4.4a.709.709,0,0,1-.2.488A7.744,7.744,0,0,1,244.9,442.6a7.124,7.124,0,0,1-7.48-7.249Z" fill="#145681"/><path d="M261.434,432.829a1.893,1.893,0,0,0-2.08-1.87H256.2v3.782h3.152a1.9,1.9,0,0,0,2.08-1.912Zm-.494,9.157-2.553-4.618H256.2v4.279a.7.7,0,0,1-.7.7h-1.583a.7.7,0,0,1-.7-.7V429.033a.7.7,0,0,1,.7-.7h5.855a4.381,4.381,0,0,1,4.727,4.517,4.053,4.053,0,0,1-3.088,4.16l2.543,4.279a.7.7,0,0,1-.6,1.058h-1.8a.7.7,0,0,1-.613-.361Z" fill="#145681"/><path d="M272.527,431.316l-2.185,6.031h4.37l-2.185-6.031Zm3.718,10.575-.714-1.918h-6.009l-.712,1.918a.7.7,0,0,1-.657.456h-1.875a.7.7,0,0,1-.654-.952l4.86-12.614a.7.7,0,0,1,.653-.448h2.779a.7.7,0,0,1,.654.448l4.86,12.614a.7.7,0,0,1-.653.952H276.9a.7.7,0,0,1-.655-.456Z" fill="#145681"/><path d="M291.016,435.329a4.09,4.09,0,0,0-4.37-4.37h-2.563v8.762h2.542a4.2,4.2,0,0,0,4.391-4.392Zm-9.917,6.318V429.033a.7.7,0,0,1,.7-.7h4.826c4.391,0,7.438,2.794,7.438,7,0,4.245-3.047,7.018-7.417,7.018H281.8a.7.7,0,0,1-.7-.7Z" fill="#145681"/><path d="M296.185,436.737v-7.7a.7.7,0,0,1,.7-.7h1.625a.7.7,0,0,1,.7.7v7.62a3.288,3.288,0,1,0,6.576,0v-7.62a.7.7,0,0,1,.7-.7h1.646a.7.7,0,0,1,.7.7v7.7c0,3.467-2.059,5.862-6.324,5.862s-6.324-2.395-6.324-5.862Z" fill="#145681"/><path d="M316.712,431.316l-2.185,6.031h4.37l-2.185-6.031Zm3.717,10.575-.713-1.918h-6.009l-.713,1.918a.7.7,0,0,1-.656.456h-1.876a.7.7,0,0,1-.653-.952l4.86-12.614a.7.7,0,0,1,.654-.448H318.1a.7.7,0,0,1,.653.448l4.861,12.614a.7.7,0,0,1-.654.952h-1.875a.7.7,0,0,1-.657-.456Z" fill="#145681"/><path d="M327.175,441.647V430.959h-3.4a.7.7,0,0,1-.7-.7v-1.226a.7.7,0,0,1,.7-.7h9.777a.7.7,0,0,1,.7.7v1.226a.7.7,0,0,1-.7.7H330.18v10.688a.7.7,0,0,1-.7.7h-1.6a.7.7,0,0,1-.7-.7Z" fill="#145681"/><path d="M336.167,441.647V429.033a.7.7,0,0,1,.7-.7h8.516a.7.7,0,0,1,.7.7v1.226a.7.7,0,0,1-.7.7H339.15V433.9h6.086a.7.7,0,0,1,.7.7v1.226a.7.7,0,0,1-.7.7H339.15v3.194h6.233a.7.7,0,0,1,.7.7v1.226a.7.7,0,0,1-.7.7h-8.516a.7.7,0,0,1-.7-.7Z" fill="#145681"/><path d="M353.2,439.868l.825-1.175a.7.7,0,0,1,1.01-.144,6.118,6.118,0,0,0,3.9,1.4c1.66,0,2.437-.736,2.437-1.555,0-2.437-8.068-.735-8.068-6.009,0-2.332,2.017-4.265,5.316-4.265a8.008,8.008,0,0,1,4.927,1.506.7.7,0,0,1,.14.979l-.828,1.111a.7.7,0,0,1-.963.155,6.143,6.143,0,0,0-3.549-1.1c-1.261,0-1.975.546-1.975,1.387,0,2.206,8.047.714,8.047,5.946,0,2.563-1.849,4.5-5.61,4.5a8.307,8.307,0,0,1-5.485-1.786.7.7,0,0,1-.128-.945Z" fill="#145681"/><path d="M369.384,441.647V430.959h-3.4a.7.7,0,0,1-.7-.7v-1.226a.7.7,0,0,1,.7-.7h9.776a.7.7,0,0,1,.7.7v1.226a.7.7,0,0,1-.7.7h-3.375v10.688a.7.7,0,0,1-.7.7h-1.6a.7.7,0,0,1-.7-.7Z" fill="#145681"/><path d="M378.377,436.737v-7.7a.7.7,0,0,1,.7-.7H380.7a.7.7,0,0,1,.7.7v7.62a3.289,3.289,0,1,0,6.577,0v-7.62a.7.7,0,0,1,.7-.7h1.646a.7.7,0,0,1,.7.7v7.7c0,3.467-2.059,5.862-6.324,5.862s-6.324-2.395-6.324-5.862Z" fill="#145681"/><path d="M403.715,435.329a4.089,4.089,0,0,0-4.37-4.37h-2.564v8.762h2.543a4.2,4.2,0,0,0,4.391-4.392Zm-9.917,6.318V429.033a.7.7,0,0,1,.7-.7h4.826c4.391,0,7.438,2.794,7.438,7,0,4.245-3.047,7.018-7.417,7.018H394.5a.7.7,0,0,1-.7-.7Z" fill="#145681"/><path d="M408.883,441.647V429.033a.7.7,0,0,1,.7-.7h1.583a.7.7,0,0,1,.7.7v12.614a.7.7,0,0,1-.7.7h-1.583a.7.7,0,0,1-.7-.7Z" fill="#145681"/><path d="M414.64,441.647V429.033a.7.7,0,0,1,.7-.7h8.517a.7.7,0,0,1,.7.7v1.226a.7.7,0,0,1-.7.7h-6.234V433.9h6.086a.7.7,0,0,1,.7.7v1.226a.7.7,0,0,1-.7.7h-6.086v3.194h6.234a.7.7,0,0,1,.7.7v1.226a.7.7,0,0,1-.7.7H415.34a.7.7,0,0,1-.7-.7Z" fill="#145681"/><path d="M426.276,439.868l.826-1.175a.7.7,0,0,1,1.01-.144,6.118,6.118,0,0,0,3.9,1.4c1.659,0,2.437-.736,2.437-1.555,0-2.437-8.068-.735-8.068-6.009,0-2.332,2.017-4.265,5.315-4.265a8.006,8.006,0,0,1,4.927,1.506.7.7,0,0,1,.14.979l-.829,1.111a.7.7,0,0,1-.962.155,6.143,6.143,0,0,0-3.549-1.1c-1.26,0-1.975.546-1.975,1.387,0,2.206,8.047.714,8.047,5.946,0,2.563-1.849,4.5-5.609,4.5a8.306,8.306,0,0,1-5.485-1.786.7.7,0,0,1-.129-.945Z" fill="#145681"/></g></svg>